<mxfile host="65bd71144e">
    <diagram id="nS34zC5DchEez1A4u7cE" name="Page-1">
        <mxGraphModel dx="1396" dy="2001" grid="1" gridSize="10" guides="1" tooltips="1" connect="1" arrows="1" fold="1" page="1" pageScale="1" pageWidth="850" pageHeight="1100" math="0" shadow="0">
            <root>
                <mxCell id="0"/>
                <mxCell id="1" parent="0"/>
                <mxCell id="5" value="" style="shape=image;verticalLabelPosition=bottom;labelBackgroundColor=default;verticalAlign=top;aspect=fixed;imageAspect=0;image=data:image/png,iVBORw0KGgoAAAANSUhEUgAABNEAAAQhCAYAAAADPhlnAAAAAXNSR0IArs4c6QAAAARnQU1BAACxjwv8YQUAAAAJcEhZcwAAFiUAABYlAUlSJPAAAP+lSURBVHhe7N0JnFT1me//p/eVRgMKAkICCSpEXEgiiEbnDsvlXrlBIcMVnAR0ECfJuDXRmftXEfX1yrggkjtmIoyCcwXCCEoCcx1o5o5GEUwG1wBKAgnYbIoLvUHv//P91Tlt0TRUL9XdVac+77wqVefUqVOnultO1bee5/dLa/RYCz755BP78MMPTXdnZWVZdna2fw+SQU1NjdXW1rrbAwcOtF69ernbAAAAAAAAqSI69gpuN7+W6Nun0mKItn//fnc588wzrbCw0F+LZFRZWWmffvqp9e/f310AAAAAAABSUfMIrDXBWbR0/7pJdXW1lZaWWt++fQnQQqCgoMD9LvU7PX78uL8WAAAAAAAgtaSlpXXoclKI9qc//cmKiopcCyfCQb9L/U737t3rrwEAAAAAAEhtLQVlp7ucFKJVVVVRgRZC+p3qdwsAAAAAAIC2OylE04D0mZmZ/hLCQr9T/W4BAAAAAADQdieFaOnpJ61CSOh329ZB8wAAAAAAANDC7Jy//e1vbcCAAf7S6X3++ef25ptv2pYtW9zyqFGj7JJLLrEvfelLbrmhocEOHDhgv/vd76x37942YsQIy87OdvchtsOHD7ufXV5enn39619345p1hCYX+MY3vuH6eAEAAAAAANB67So7U1vg888/b5MnT7a//Mu/tCeffNJdvve979mkSZPs//yf/+PG36qvr7e3337b/v7v/95WrlxplZWV/h7QGh988IH99Kc/tWXLlrkwEgAAAAAAAN2jzSGagrGXXnrJfvazn9mnn35qs2fPtn/7t3+zjRs32m233Wa1tbX2D//wD/biiy+62wAAAAAAAECyy7jf4992VPF0urZBtRc+88wzrjXwb/7mb+yv//qvrX///nb22We7ds4zzzzT/vM//9Oqq6tt6NChruXz9ddft379+tk3v/lN++Mf/2i/+c1v7Pjx49arVy/LyMjw9xyhx/3+9793LaKHDh2ygoICy8/PP6kFUY/fuXOnbd261Y4cOeJmn8zNzT1hO7WTHjx40G2zfft2N7i+Xlvzcd8qKircMas1Vd2t2iaYXEH7+Pjjj902OTk5tmfPHvuP//gP9zxqUdX1Z5995tbt3r3b+vTp47aL1vw16VjVohl9rHpe7Wfbtm32/vvvu+dXSKlj1/ajR492zycKMvW6fv3rX7ufZ8+ePd3PKZaysjL3e2j+swQAAAAAAMDptWlMNAVKq1evdpVmCsRUeTZw4ED/3giFcOvWrXMB0MSJE13Y9thjj7kgSBcFanV1dW5stHHjxtnf/u3f2pAhQ1wwpMBo0aJFbhs9l8Kec8891/7qr/7KZsyY4YInbffKK6+47RQ4Bdt9+ctfth/84Ac2ZcoUF6YprNJx6ngVHomeU/drOz2nKuV+8YtfuKq6ffv2uSBL+9K4Yffcc48b302PnT59uhuf7PLLL7df/vKX7jkVcql19Vvf+pbNnz/fhXp67DnnnGP/9E//ZBdffLE7VgVnOlZdB8eqn5kq+K6//nr3mtQeu3btWtcS+4c//MEdh4LJiy66yD788EMbNGiQ3XnnnXbeeee5n+ejjz5qL7zwgtufKET77ne/636WChxPhTHRAAAAAAAA2qdN7Zwa00yhjiqrFOyokqw5VTrNmTPH/u7v/s6GDx/u1ml7VWmpWk2h1tNPP+3CHAV2CqUUZqnCbcmSJa7S6/bbb7eXX37ZFi9e7EKpZ5991n71q1+5UErVYtpOodbdd9/tAjWFZaqAU4Wc2koVaGn7f//3f7f//t//u9tGgdsNN9xgr732mm3atMm9FrWlal96HRrHTfu+7777mgI4HUtA1W4K2tS6quDtrLPOcs+hMcsUkuk5FKp99NFH7njlvffec/v/05/+ZHfccYd7TU899ZSrVtM4Zwobg/Bw+fLl7uf0v/7X/3JVbbfeeqt73I4dO9y+5JNPPnH702vUa9HPT7evuuoqF8Lp9TfLRAEAAAAAABAHbQrRFNDoooouVZVlZWX595ye2idVufajH/3IVW79l//yX1x1l6qm9u/f79ol1U6pNkaFXjfeeKNrBR0/frwLi/Scr776qu3atctVdKmF8brrrnOTGnzta1+za665xqZNm2bHjh1zIZnCLrWRqlpMs1qqqkth3L333mslJSU2a9YsF14prFI7qSrqrrzySuvbt6/NnDnTPa8CLIVoqhKTM844wx566CG3vzFjxrhqNtFxKDz76le/anfddZcL5FRNppBPIZcmB9Dx6Tn1miZMmOCq6lRFpmPVa1J4p+Bu6tSp7j5VnKmyTFVzCgdFx7t3717Xwqm2WQWIel3Dhg1zx6+KPf1s1BIKAAAAAACA+GrX7JxtpbBNlVu6iEI1BXG6iMYb0xhfGktMoVgQHOlxatNU+6MqwdSOqHBK438ptFIbY7Cd2jMVlCmQU0WXHicPP/ywC7w00YECJj1Wz6v9KMBTOPXuu+/amjVrXIWZttM+1MapqjtVtYnaLoPjVztkjx493O1g7DTR6wpaJfWaFIyptbT5a/rKV77iWmb1mvQcaoFVKKnXpLBO9Dgtq7JPVK2nEE3VaHp9GzZscMf7L//yL67CTa9Dz6fXBAAAAAAAgPhqU4imAEjVYwpsFOYEAVNHqdIsGN8rOogShUoaUP/o0aPuOfXc0nw7hVRf+tKXXFCmKrTvfOc7roVS4ZpCph/+8Id22WWXubHI3nrrLbcfXVTVtmDBAjfmWHBRm6aeryP0ek51rAr/9Jp0nBo7LqDtoilUjJ6kQGPJVVVVudbR6ON98MEHXTssgDip9v49an6po1UaAAAAAFJZm0I0VWOpwktBmsb7ih4zLPD222/b9773PZs8ebJt3rzZX3t6quZS5ZXCNFVZBeGTKDhThZVCMrVbajsFVM23U/WYqsvUTqmASuGTWi3/9V//1Y0rpoH41UqplkdVnakKTK2cGptN44qpGiz6otemwO10M5WeTmtek0I/Vc9FbxeEiVJeXu4q2gLap45Hx9X8eFWlpzHgLrzwQn9rADFV1pntP2a2y/vv7M2jZls+NXv1E7PffHbyRffpou12lJvtrTI7Wku4BgAAAAApos3tnJp1UuOavfPOO7Z+/Xo3kH5A4ZAG3lfANmLECNeO2BpqsdT4XsEEAwrDRGOc7dy5041xpvZHtUGqvVHVWNpOQZgEy3qcxgZT2KfJAzTrpo5ToZ/GEdOYY5oQQVVmCqO0rcIsjVumfYiOQZMdPPfcc25ctOjwqy3UnqnXpGCspdek0Cv6NemYNPmB2lpFFWo6dm0nakHVtqpi2759u2sDFYVveszPf/5z1+IZr+pAIJQUeB32/htRaBYEYnu8//YPV0cCtViBmO7Xdp/UmO07ZvZuWWQ/ulYYp4o1AAAAAEAoZdzv8W87qmo6XfWVxgJT6KXZNhU2/d//+39de6HGEnvyySft//2//+cG3w8GyNd2r7/+uguKvv3tb7uAS9VW0es10YCqsvTcmjFTEwwoIFNbpcb9UmWZ9nfJJZe451a4pe2CAfxVZabqMoVS2k5jkOm4li5dar///e9dVZqq0TQjpp537NixbkZLtYq+8cYbrhJNAaD2tXLlSjcDpto8R48e7bbR/hV+/c//+T/d61dwpf3pcQoUr7jiCvezURC2atUq9/P7i7/4C1c9pzHKdKwK6lQtp9ekbTS+miZXUCipCjO9FlWSqQJOP4cVK1a4SRA0i6haUi+//HIX+uk4FF7quDXpgYK2//2//7f7Xaii7c///M9dhV1LNM6bft7RraVASlDF2P7jZr+vMPu4xqyy3iyeeZfCs8/85zhaF1lX+MV4iQAAAACA5NfmEE0UVinQUtWW2jdVWaXwR+GSZpXUzJEKh5qHZacK0bReVVuqXFP7osIpBUiq4NK6W2+91QVtCocUPmmdKrWC7RRoqY1R2ylsUmg2ePBgFzgpmPqXf/kX19ap9ki1mipo035UlabXosouVdApeFMVnV6bZvK86KKLXFClgK6tIZpm1tRr07HqeaNfk0I+Heuf/dmfudfUp08f16qqiQMUSOqin5NmDNVz6TkV6OlYFUxqbDrtS8er0FI/M81Uqp+7grRTIURDylF4tqsyUjVWXhff4OxUFKipUu0j75Lp/bdGmAYAAAAAoZDWqJQmym9/+1sX1rSWQiaFM6LwKJhxsyPUWqngSYGQAqTmA+4HVKWlAEmBk9onW9pO7ZQ6PgVHpzo+/QgUgKkVUvtR++epnrO9gtd0umPVxAF6PWoh1es+3c9SAaaCRL0uVbwpWItFraEaA44QDaF3vCHSsqkQrbvlZpgNzDPr88UkIQAAAACA5NPhEA3JgxANKUFVZxqfLNEG/FeINijfLCe+AT0AAAAAoGvwaS7FEKAhtFR9pokCNGtmIs6YqckLNAGBrgEAAAAASeekEE3thszwGD76nZ5uvDQgqX1UbfbW55GZMxPZ8fpIm+meSn8FAAAAACBZnBSiaXytzz/3PowiVPQ71e8WCJ19VWYfVCRm9dmpaBZPVc1pEgIAAAAAQFI4KUTTLJma3ZIgLTz0u9TvlLHuEDoK0PYe8xeSjKrm1N5JkAYAAAAASaHFMdG++tWvuhkrDx06RGtnEtPvTr/DhoYG9zsFQiWZA7SA2jsJ0gAAAAAgKZw0O2c0zeaoKqZjx5L8g2qK0hhoX/rSl1x1IRAqYQjQouVmmF3S0yyTiT8AAAAAIFGdNkQDgISz/5jZnip/IUR6ZpmNKPIXAAAAAACJpsV2TgBISBpHLIwBmhytZdZOAAAAAEhghGgAksPxBrPtFf5CSGnWToVpAAAAAICEQ4gGIDnsrTKrrvcXQmxHuVkdXfYAAAAAkGgI0QAkvsPVZh95l1SgAE0TJwAAAAAAEgohGoDEF6aZOFuDtk4AAAAASDiEaAASm6rQUqGNs7lUCw4BAAAAIMERogFIbKkaJqkSjWo0AAAAAEgYhGgAEleqVqEFqEYDAAAAgIRBiAYgcaV6iEQ1GgAAAAAkDEI0AIlJ4VEqV6EFjtT4NwAAAAAA3YkQDUBiOlTt30hxH3k/h7pGfwEAAAAA0F0I0QAkpk+pwHIUoFXW+QsAAAAAgO5CiAYg8aiVk+qrL9DSCQAAAADdjhANQOIhNDoRVXkAAAAA0O0I0QAkHtoXT3S8wazauwAAAAAAug0hGoDEU8msnCepqPVvAAAAAAC6Q1qjx78NAN2vot7src/9BTQZnG/WP89f6LiysjLbsGGDv9Synj172vjx4+2ZZ56x559/3latWmVFRUX+vScK9jd8+HAbNmyYvxYAAAAAwoMQDUBi0aQC75b5C2jSJ8dsaKG/0HGlpaU2ZswYf6llAwYMsM2bN9vs2bNt48aN9otf/MJGjx5tO3bscIHZhAkTmgKzYH+333673XHHHW4dAAAAAIQJ7ZwAEksF46G1SOOixVEQkAWXG2+80a1fsmRJ0zpVnkWvU4Am27dvtyeeeMJdAwAAAECqyLjf498GgO73Wa3ZUYK0k6R5lzi2c4paM4PLW2+9ZVu3brUZM2a4lsxgvagK7eWXX3brX3nlFVu3bp3t3r3b3adrra+urnZtn6NGjWoK20T7VCuorsvLy23IkCH+PSfT8/zqV79y+9PxPP300+763HPPbTqWgPanarjgWM4+++wWtwmeW/tQtdxzzz3n2lTPOussf6vIdsFzpaWluYARAAAAAJqjEg1AYqmjwzzRKKxS5ZnGPduyZYsLnUTXq1evdutbosdMmzbNhWvaTm2hEydOPOX2wfPMnz/fPU6hmpb1mOA5JdivrrXNAw884LZRm2kgehs9t1pNFZRpOaig03Fom+C5dJy6rf0BAAAAQHOEaAASCyFaQps3b57dd9997rau1ebZUuWWKsAWLlzoxkh777333HbaXkGXwqzTUWAWPEYXKS4udtfBBAYaiy24Xxet1/OJKs50W8cVvR8FZdEUqOm5FixY4O7XtjpeHV/zbQEAAACAEA0AEHeq/lKIFT3JwE033eTaPXXf6Tz22GNNrZnah8ZrUzCmwEvrX3rpJXcJttG1LkElmgI8ab6fqVOnutsBhXGafTR6vY5Xj9F9AAAAABCNEA1AYsnU4F9Idgq9ghk7oy8KurT+dDR+WbSg0u3DDz9013q8qsjUHqp9XnjhhSe0iAb7b76fYCZRCY5PwVzzY9S+Yh0jAAAAgNRDiAYgsRCihYbCL7VHRl/U0qkKsfZSuKXxz9RyGVSp/eIXv2gK2tpKwVrzY9TxBbOVAgAAAECAEA1AYiFEa1lOhn8jOSjUUkXXhAkT7Lvf/W7TRTN36vp0NHlBtGBSAe1TbZba7+LFi934bGoR1T6jK9GCirPmLZnBfkT7Clo9o49PFx2zLgAAAAAQjRANQGLJTa6wqMskYLi4c+fOU7Y9amwxBVuaaTPYJmidVBvm6ahVM/oxwfhqCsuC4KukpMRdi7aPDtEUhGk7rddjtQ/NuNl8sgBVm+k+bRfQbbWH6rgBAAAAIBohGoDEUkCI1qIE+rmoSkuhlloqFYq1FKRpAgG1RirE0jaDBg2yadOmucepgux0NNh/9GMUiK1atcrdF/3cCrt0UcWZ1gWC7XWtWT21j+3bt5/UoqmgT5MKaCZPPZcuuq1jj54QAQAAAAAkrdHj3waAxPDqJ/4NNBlWaNYrx1+IPwVhGrh/+PDhTdVeAQVQqvRSJVi0oLUyaH3UdhrMPzrQ0n6D7RROtbT/gAIvhW6bN2+2o0ePusox7Uv7b/4Y7VOTFOh+VZ6pBVTbaP/RgoBP22nWzrlz57oxz/SYgB4bzOypVtDmrxMAAAAAhBANQOJ586hZZZ2/AOeSnmaFmf5COEWHaNFBXFspONN+RNVwgWD/moiAoAwAAABAW9HOCSDx9Ax3WNRmud4/1SEP0OJJFWmqVFNrplo5g5ZOBWhq6SRAAwAAANAeVKIBSDyf1JjtKPcXYL2yzYb18BfCS+2WGuhfY6adquWzLbQ/tYSqlVSVbQrPNAYaAAAAALQHIRqAxFPn/bP0288i1zAbWmDWJ9dfAAAAAAB0B9o5ASSezDRm6YzWiRMKAAAAAABahxANQGLqn+ffSHF9ciKhIgAAAACgWxGiAUhMPbMIj6SX93MAAAAAAHQ7QjQAiUkBWr8UHwdMs3LSygkAAAAACYEQDUDiUktnKlejDaSlFQAAAAASBSEagMSVytVoqkJjRk4AAAAASBiEaAASW6pWo1GFBgAAAAAJhRANQGJTgJZqgVLPTKrQAAAAACDBEKIBSHyqRlOwlCrOK/RvAAAAAAASBSEagOQwtDA12joH5pvlZPgLAAAAAIBEQYgGIDnkZpgNLvAXQqpPjtkgxkIDAAAAgEREiAYgeShkCutsnZqNM+whIQAAAAAkMUI0AMllSIHZ2Tn+QkgoQBtRlJqzkAIAAABAkiBEA5B8FKQVhGSiAQVnCtAYBw0AAAAAEhohGoDkEwRPyR6kBRVoBGgAAAAAkPDSGj3+bQBIPh9UmH1U7S8kEQI0AAAAAEgqhGgAkt/eKrN9x/yFJKAKuuGFBGgAAAAAkEQI0QCEwyc1Zrsrzaob/BUJSrOLakw3AAAAAEBSIUQDEB7H6832HkvM9k61b36t0OyMLH8FAAAAACCZEKIBCJ/DxyNhWiJUpWkSBFWf9c+L3AYAAAAAJCVCNADh1d1hWp8cs0F5jH0GAAAAACFAiAYg/BSm7fculfX+ik5E5RkAAAAAhBIhGoDUUVEXCdOO1sa3Ok1hWa9ss7NzzAozCc8AAAAAIIQI0QCkJk1CoDDt8zqzSl3aUKWWkx4Jy3p6lwLvwmQBAAAAABB6hGgAEDjeEAnX3O2oUC0zPVJdlpsRuabSDAAAAABSDiEaAAAAAAAAEEO6fw0AiFJWVmYXXnihrV692l8DAAAAAEhlhGgA0AKFaLp8+OGH/hoAAAAAQCojRAMAAAAAAABiIEQDAAAAAAAAYiBEAwAAAAAAAGIgRAMAAAAAAABiIEQDAAAAAAAAYiBEAwAAAAAAAGIgRAMAAAAAAABiIEQDAAAAAAAAYiBEAwAAAAAAAGIgRAMAAAAAAABiIEQDAAAAAAAAYiBEAwAAAAAAAGIgRAMAAAAAAABiIEQDAAAAAAAAYiBEAwAAAAAAAGIgRAMAAAAAAABiIEQDAAAAAAAAYiBEAwAAAAAAAGIgRAMAAAAAAABiIEQDAAAAAAAAYiBEAwAAAAAAAGIgRAMAAAAAAABiIEQDAAAAAAAAYiBEAwAAAAAAAGIgRAMAAAAAAABiIEQDAAAAAAAAYiBEAwAAAAAAAGIgRAMAAAAAAABiIEQDAAAAAAAAYiBEAwAAAAAAAGIgRAMAAAAAAABiIEQDAAAAAAAAYiBEAwAAAAAAAGIgRAMAAAAAAABiIEQDAAAAAAAAYiBEAwAAAAAAAGIgRAMAAAAAAABiIEQDAAAAAAAAYiBEAwAAAAAAAGIgRAMAAAAAAABiIEQDAAAAAAAAYiBEAwAAAAAAAGIgRAMAAAAAAABiIEQDAAAAAAAAYiBEAwAAAAAAAGIgRAMAz/PPP29lZWX+0qlpu9LSUn8JAAAAAJAqCNEApLzt27fb3Llzbdq0aacN0p544gm33dNPP+2vAQAAAACkCkI0AClv+PDhdvvtt9uOHTtOGaQpQFu4cKENGzbM7rjjDn8tAAAAACBVEKIBgEfBWHSQdvToUf+eEwO0VatWWVFRkX8PAAAAACBVpDV6/NsAkPIUlik0GzBggBv7LLgmQAMAAACA1EaIBgDNBEFagAANAAAAAEA7JwA0E7R2CgEaAAAAAECoRAOAU9iyZYubdIAADQAAAABAiAYAAAAAAADEQIgGoH2qD5v98RHv+pC/Akkno9Cs7xSz3uP9FQAAAACAUyFEA9A+79xAgBYWFyww63GRvwAAAAAAaAkTCwBoHwK08FBVIQAAAADgtAjRAAAAAAAAgBgI0QAAAAAAAIAYCNEAAAAAAACAGAjRAAAAAAAAgBgI0QAAAAAAAIAYCNEAAAAAAACAGAjRAAAAAAAAgBgI0QAAAAAAAIAYCNEAAAAAAACAGAjRAAAAAAAAgBgI0QAAAAAAAIAYCNEAAAAAAACAGAjRAAAAAAAAgBgI0QAAAAAAAIAYCNEAAAAAAACAGAjRAHSJbe+X27pXj9jBI9VWXlVnL7/5me3aV2XrXzvib/EF3Xcqeowup3PAe45t75f5S90jeI2dIRFeHwAAAACkGkI0AJ1u8YultmD5n1yANucnO93148v3+fc2uv9XMKb1EtyndQqjdJl+7+9s5cZD9vK2z9wlOkjT46KXt+0st/WvHjnh8cH9CvMUbml/WhfsV7QcHENwW9sHgsdpfbBPXUcLHldeVe9eR/Q+tW30/pova1tdAtGPlflL9riL1i9+8cBp9w0AAAAAiK+M+z3+bQBovf3/7N+IbcGKfXb/7CE2flQvG3lBD7du4xuf2qBz8uzN98tt2wdl9ubOcntq7X47b1CBvfLmZy4Uem93hV098kv2ydFaW/MfH1uvntmWk5VuqsLa8t5Rb7vPrbqu0RYs32u79h2zGu/20IH5LlxS4KWKrRe8x2V7jyl54xMbOijffrzo9/blfrne85bZ179a6G33udvv3kPHbOWGQ7butSOWk51uy9YfcKHUmv84bP3OyrUvn5PrnlOP0zHN+cn7VlPbYIvXHvBe15fccS1YsbfpdfTrneteR0VVvbfNfu91F9lc77n1mL9/dq9dNfJMu/WxXe61rdx42CzN7FnvOf908Li7/Q//UuqOf81/fOQ935lu/wr7FM5d6B33C976g0dq7Nl/PXjCvnTMl4/o6X7GrXbmGLP8If4CAAAAAKAlVKIB6HQKfr6Q5l9/4eVtn9vN1/a3FQ9+3YYOzHPhkcKp6RP6uvv79c7xLtkuTJKR5xfZzZP7u/1u21lm5w0ssHO8+8srv6gKO29gvt0/e7DbV3NDz833ts+1qy89s2m/qm67+doBdv34vm6fcr33/JOuOMt27a10y8HjVD3XIz/DimcMctcK8CT6dZw3KM+7L9PmecfQ6L3mD/ZWuWU9RrV3qpQLjlGhoG6LgjG9Xq3T9tr/wY9r3H163br0yMvwfk4F9thtX4u0du4sd9vpcRXNKuMAAAAAAPFBiAag000ff7arwlLF2NxFu6y8MjpUiwReKzYcctVdQSBUPP1cu3/JH/0tzK1raRyw8wbmueseBZneJcPdFlVkqQIszRpdUKZlVZqJtjt45LhrhdR+FaCNPL+HrX/1Y1c9ptstCR4XCQIbvf0dduu1/+Bar2P6vdvtg72RYC1w3qB891iNC6dj0nPomFS9puo5hWG6VhioEO+c3jnesWV6j0xrel3Bz6D82Ik/Pz2vAkU9BgAAAADQOdIaPf5tAGi934z1b7SOgqEDR2rs6pFnuGVVXBXmR8IhVVApyFJIpLZHtWMqUNJjtCxBxVXQDqpttQ9tp8cqRJp0ZW93X1B9tmtvldteYVSwf4VtwWP6nZXjjkHPp6q0E4+h0oVSQRWdjlGiH6fj0euJhF0RwT7UOhocX/A6gtcQPKb5cvTz6z4df7Asbtwz/2fQfN86XgV3zY+nVQbfZdZ7vL8AAAAAAGgJIRqA9mljiIYERogGAAAAADHRzgkAAAAAAADEQIgGAAAAAAAAxECIBgAAAAAAAMRAiAYAUTTJgC4asF+ziQIAAAAAIEwsAKB9knRiAc16uXLDIXf75mv728qNh61HXoZbP31CXyte9Pum+yqq6u3S83u0sL1m1jzulre9X26vbPvMzZB5zRWR2UGTDhMLAAAAAEBMVKIBSCmLX9xv/XrnNN1WxVlgxYZDNvL8Hu5SXlnv7nt8+d6m7RWgRbZvtPKqentl2+e2YPk+b/si4/sIAAAAAAg3QjQAKaWiqs7O6Z3jKscOHqlx67SsoEyVZz3yM90lWnB/eWWdW7565JlNwVrxjIH2wb5KF7CVe/sGAAAAAIQTIRqAlHLztQNs5cZDroJM7Zjyypuf2YqNh+2qkWfYOb2zXSCmarPC/Ay75sqz3Pa6X+2eCtSkh3ef7n9522e2a98xt9w8fAMAAAAAhAdjogFonyQdE625OT/Z6YI1tXCmLMZEAwAAAICYqEQDkNLUjjl0YJ6/BAAAAABAywjRAKS0oQMLaMMEAAAAAMREiAYAAAAAAADEQIgGAAAAAAAAxECIBgAAAAAAAMRAiAYAAAAAAADEQIgGAAAAAAAAxECIBgAAAAAAAMRAiAYAAAAAAADEQIgGAAAAAAAAxECIBgAAAAAAAMRAiAYAAAAAAADEQIgGAAAAAAAAxECIBgAAAAAAAMRAiAYAAAAAAADEQIgGoH0yCv0bSHoZBf4NAAAAAMCpEKIBaJ9+f+nfQFLLG2J25hh/AQAAAABwKmmNHv82ALRN9SGz8nf8BSSd7L5mRRf5CwAAAACA0yFEAwAAAAAAAGKgnRMAWlBWVmYXXnihrV692l8DAAAAAEhlhGgA0AKFaLp8+OGH/hoAAAAAQCojRAMAAAAAAABiIEQDAAAAAAAAYiBEAwAAAAAAAGIgRAMAAAAAAABiIEQDAAAAAAAAYiBEAwAAAAAAAGIgRAMAAAAAAABiIEQDAAAAAAAAYiBEAwAAAAAAAGIgRAMAAAAAAABiIEQDAAAAAAAAYiBEAwAAAAAAAGIgRAMAAAAAAABiIEQDAAAAAAAAYiBEAwAAAAAAAGIgRAMAAAAAAABiIEQDAAAAAAAAYiBEAwAAAAAAAGIgRAMAAAAAAABiIEQDAAAAAAAAYiBEAwAAAAAAAGIgRAMAAAAAAABiIEQDAAAAAAAAYiBEAwAAAAAAAGIgRAMAAAAAAABiIEQDAAAAAAAAYiBEAwAAAAAAAGIgRAMAAAAAAABiIEQDAAAAAAAAYiBEAwAAAAAAAGIgRAMAAAAAAABiIEQDAAAAAAAAYiBEAwAAAAAAAGIgRAMAAAAAAABiIEQDAAAAAAAAYiBEAwAAAAAAAGIgRAMAAAAAAABiIEQDAAAAAAAAYiBEAwAAAAAAAGIgRAMAAAAAAABiIEQDAAAAAAAAYiBEAwAAAAAAAGIgRAMAAAAAAABiIEQDAAAAAAAAYiBEAwAAAAAAAGIgRAMAz9NPP21lZWX+0qk9//zzVlpa6i8BAAAAAFIFIRqAlLd9+3Z74IEHbNq0aacN0p544gmbO3euC9wAAAAAAKmFEA1Ayhs+fLjdfvvttmPHjlMGaQrQFi5caMOGDbM77rjDXwsAAAAASBWEaADgUTAWHaQdPXrUv+fEAG3VqlVWVFTk3wMAAAAASBVpjR7/NgCkPIVlCs0GDBjgxj4LrgnQAAAAACC1EaIBQDNBkBYgQAMAAAAA0M4JAM0ErZ1CgAYAAAAAECrRAOAUtmzZ4iYdIEADAAAAABCiAQAAAAAAADEQogFAM/XvvmE1a5/xrn9jaX0HWPZ3ZlrWuCn+vQAAAClk78/MPtloVlfhr0BSySw06z3BbOBf+ysAdAQhGgB4GivLrXbjaqvbWuJCtObS+wywjBGXWc6M2yytT39/LQAAQIgdesFs38/8BSS1/t+LXAB0CCEagNN65pln7MYbb/SXwqfh8H6r27TGal5cao2VZf7a08scPc6yJ89yoRoAAEBo7Sw2K3/HX0BSO3OM2dfm+wsA2osQDUgxZWVltmHDBtuxY4eVlpbaqFGj7KabbvLvPdns2bNtyZIl/lJ4qNqsevmiFqvOWkvVadkzbrXMEaNCU52mvwn9bRw9etTdDmjGUgAAkGII0cKj6CKz8xf4CwDaixANSBEKRIqLi12IpuBs2LBhNnr0aBswYIC/xcmef/55F6jMmzfPXxOhfSTjjJWuZXPtUqspWWONh78IiDoqraDIMi8fl9Stnk8//bRt3LjR/V71t6K/i/Hjx7vrc889t+nvJFl/9wAAoB0I0cKDEA2IC0I0IEUoQFNwpqozBWO63VzzgERVaKpAit5W7Z0LFy60zZs3N227detW91iFLolI1Wa1W0qsTuFZK1s220stnlljpyT1RAT6vauFVyFrtCeeeMKFbapM1O9efxcK3hSwBX8jQSVbov4tAACANiBECw9CNCAu0v1rACGnYENh15gxY1wQEt2qp/UKTqZNm+aviWgetilE2b59u7333ntNAZpCFIVqqlrTfhJJ3eslVnX3dHdRBVpnB2iiwO7443dZ5cyrvOdcZo2H9/v3JA/9bQwfPtxfivwd6HevFk/97kW/c4n+W9K1/o7ULqz1AAAAABAmhGhAilDAoeoiVZAtWLCgqT1P4YhCD7V4ButEgZjWBRSWKUBTZZqqzgLz589367T/6Md3F7Vs1iz/qVVMvcSOPXhLh8Y864iGw6V2/KkHrWLmt12o1l3H0Vb63ep3GV2RGISkQVuv/g4mTJjgttPfSfB7V7Wj/rYUukX/7QAAAABAGBCiASkgCLhaas9TR7daPBWSBVVnClIUjikoCSg4UTiiQEVhicITXbRt0OKn59A+tV1XU0ilirOKqRdb9XOLuqTqrLVqS9a4Y3PVad7tRNa8+lC0LnpcvGAbBWtBW6f+DoK/j/vuu89Vsqn1N9GqEwEAAACgvQjRgBQRXVkU2LJliwvQFIoF1WQKxNSSp+2DCqMgMHvppZdcpZECEm2r4ETVbQrQtKx20Msuu+ykEKazuKqzF5c2tWwmerWXq07zWz11nYitngpLo6vI9DuW5mOcrV692t0X/K4//PBDt43+FtLS0tzfkP5+qEgDAAAAEBaEaECKCAKxaEHwpSqjoJ1TwYiCkKlTp7pATferukjrdJ+WFZjofj1GFWwTJ050gZy2aV7t1hkadu9wLZuV3/+2VS9+KGlaJQMK01SRplbPYw/cYnVbSvx7up/C0+bjoTUPwoLJJvQ3EIRomsFT22rMPf0tKGxlcgEAAAAAYcLsnEAKU4im0KSlKjXRWGm6LzoY02NaCuS6gsKy6uWLki40a430PgMse8atljlilKX16e+vTQwKT0/1N3K6+wAAQJJjds7wYHZOIC4I0QAkNLVsamZNtW0m0jhnnSlr3BTLmXFbwoVpAAAgxRCihQchGhAXhGgAEpKqzWq3lFhdyZqUCc+ayxhxmWWNneJCNQAAgC5HiBYehGhAXBCiAUgYqjqre32j1W5aE8qWzfZSq2fm5eMs+zuzqE4DAABdhxAtPAjRgLggRAPQ7VKxZbO9VJWm6jRVqQEAAHQqQrTwIEQD4oIQDUC3CfNEAZ2taSKCy8dbWkEPfy0AAEAcEaKFByEaEBeEaAC6lKs627jatWw27Nnpr0V7KUxTVRoTEQAAgLgjRAsPQjQgLgjRAHSJht07rGbTCyk9UUBnU5iWPXmWZY4e568BAADoAEK08CBEA+KCEA1Ap6Jls+s1tXqOGEV1GgAAOKUdO3bYsGHD/KUWEKKFByEaEBfp/jUAxI1aNmuW/9Qqpl5iVXdPJ0DrYg2HS+3443dZxcxvu2vaZgEAQHPbt2+3iRMnWnFxsb8GABALIRqAuFFYdmzBXVb5/W9b9XOLaNtMALUla6zyh9e4MFO3AQAAZPjw4TZ16lRbvXo1QRoAtBLtnAA6JJgooG5rCRVnSYCJCAAAQDQFaArSFKgtWNCs3Y92zvCgnROIC0I0AO3iwrO1S63mxaVJX3GWVlhkWd+Z6W437Nlh9e/9xtIHXxD6UDBr3BTCNAAAcOogrRtCtF37qmzlhkNWmJ9hN1/b3y33yM+0oQPz/S261oEj1fbmzjK75sqz/DVJihANiAtCNKAdSktL/VuppaioyF1EbZt1m8LRHqjqrKwZt1rNUw9Z3n0/t+NPPehmuFRIqOt6jSlWWWb6x7Lx8H5XyRWWgE0BYsGyX1taQQ8rKytzFwAAkHrmz59vGzduPDFI6+IQTYHV3EW/t5sn97dt75fZrn3HbOT5Pbw3LGbn9Mqxb1zQw87pnWPrXj1iPQoy7OpLz7Tyqjp7edvnTcsK3T7YW9W07bb3y9022o/COD3HQe9y4OMat81/7ixvcVvRfvXc673ne+rvzreX3/zMrdfziPal5yuvrG/aR7BN9D76nZXjPXeGd3/2CcfapQjRgLggRANaQaGZvp17/vnnUzZACyxZssTGjx9v5ROH+GuSn0K0nJvvseMK0YofaQrRNCC/BulXtZZmGM0aO8XqtpRY+pALrHbtMv/RyS/3zkdcVdqYMWNS/u8bAACY3XfffXbTTTd1eYimAEqB1WO3fc0tK+xSYKZrfWhN8y6FBRnmFjw9CjJt194qF04pAJs+oa899eJ+mz6+jx04UmNDB+XbK9s+s5HnF3r3V7j9bttZZvP/aY9dc0VvW//aJ951L3c9+9r+btuhA/PctgrBFJBp3wrzrh55hh34uLrpeRX06dhWbjxkV196htuH9v/ytk+tvKrebafHq4JO1yPPL3Khm8I0Ld987YCmoK1LEKIBcUGIBpyGqnKeeOIJe/rpp92ypgDXZcCAAW45FX33u991r79i6sWupTMMFKLl3fuPVrulxOrfe8NVm2WOvc69vvSz+1vmRaOsav4tlnvLPS5Uq1m7zNsmPGFT3sMrLHPEZYTEAACksB07drhKNL3PW7VqVeT9bheHaAq4Fq894Kq+gjZKhWH9eue4MEv3KUG7fnxfl6gp9PrP98ttsbe9Ai3RdutfO+KCLIVUqmg7b2CBFeZnWvGMgU3PMW/2V+yWn7xvP/ceq2uFaqKwbO6iP9il3mNVLabQS9trvwrzdCzar9o79ZxvevufN3uwfeP7v3EhmkJAVbNpu+DYXvaOU8ezzjuu8wbmu31e5T3P1Zd+yT1nlyBEA+KCEA04BYUJ06ZNc9eqvLrxxhtt9OjR/r1o2L3Dqh68xQVOyS5o56x+/K6mZYVouq5/d6tljZvq2lczLx9nmRdeZse81x0W2TNus5wbbvWXAABAKlKApve9GrajKUCTbhgTbe6iXVZe1eCqtebN/rLt2nvshBDt6kt72sqNH7kx01Rx5to53zzqrhfc9jUrXvR7F36tf+1je+y2oXb/kj2uGkzh1fUT+p4yRJv3V1+x+f/0R+95cmykWjN7ZdsSF57luONSxVqwPOnKXt5yJERbsrbU23+B2+aqS8+wV9783AVm/bzjVVXbutc+tR756a4STdeqavvAe2061mDfXYIQDYgLQjSgBUGApkq0efPmubEh0LLakjXuogquZJZWUHTCBAnBclof701kRZm7nTV5ljV6t5N9LDiNf6bXkn3tLPc6AQBA6jplgCbdEKKJKr4UkmkMM4Vjottar+Apep1Eb998WdtWVNWfEFgF+2l+3Xzb4HmCdc3vDyrRNAFCsC54blGLqffOy7V4BiFe9LF1KUI0IC4I0YAWBGNDvfTSS659E7HV795hNWuXWt2mF/w14aIB+DNHj7XakuR9fRkXXuaCM433BgAAcNoATbopREsWwSQFqjJrie5Xe6faNxWgdStCNCAuCNGAZjQu1Ny5c+3222+3O+64w1+L1tKYYZq5UgPxh6HVM9mp6ixz3BQXnGWOGOWvBQAAqU5fGE+cOPHUAZoQooUHIRoQF4RoQDOqQpPNmze7a7RfWFo9k1F6n/6WOXYKLZsAAKBFGrZk4cKFbhbOFgM0IUQLD0I0IC4I0YAo27dvt//23/4bVWhxpuq06ucWNc18ic7jWjZvuJWqMwAA0HGEaOFBiAbERbp/DcCzdetWdz1qFAFEPGmWy7ziR63gyfWWe+cjltanv38P4kEtm9kzbrXCZa9Y/iMrCNAAAAAAoBMQogFRVNYuw4cPd9eIL7UVZo2bYoXLfm15Dy+3zLHX+fegPVR1lnPzPVbw7K8t54bbIjOJAgAAAAA6BSEaEEUDrIoGWEXnUrWUq05b9oplTZ5JdVobaJIAhZCqOmPMMwAAAADoGoRoALqVWj1z59zrqtPU6qnqKpysqWVz9VuWd9/PadkEAAAAgC5GiAYgYajVU9VVqk6j1TNCoaKqzgpXvx1p2aTqDAAAAAC6BSEagITTNBHBsldSciICVZ2pxTVo2aTqDAAAAAC6HyEagISlMC2YiCD33n+0zFFj/XvCKX3wMNeyqYkC1OJKeAYAAAAAiYMQDUBSyLp8vOXNe6qp1TNM1WlBy2bBk+to2QQAAACABEWIBiCpBK2ewUQEyRqmRU8UQMsmAAAAACQ+QjQASSto9VQVV7JMRKCqs5yb73Etm1SdAQAAAEDyIEQDkPRUxRVMRKCAKtGq09xEAeOua5ooIPvaWYRnAAAAAJBkCNEAhIZaPRVQBa2eqvrqTkHLppso4M5HadkEAAAAgCRGiAYglNTqqaqvYCKCrhRMFFC4+m1aNgEAAAAgJAjRAIRaMBGBwrTOnIjAtWxOnmn5T65jogAAAAAACCFCNAApQWHaCRMRjBrr39Mx6YOHNU0UkDvnXsvwlgEAAAAA4UOIBiDluIkI5j3V1OrZnuq0oGWz4Ml1TBQAAAAAACmAEA1AygpaPYOJCNIHX+Df07JgooDC1W/RsgkAAMIvp49/A0kvm98lEA+EaADgUatnwZPrI62ezSYiUNWZQja1bDJRAAAASBn9v0f4EgYZBZHfJYAOS2v0+LeBlFdcXGyrV6+2vXv3+muQqhoOl1r97h2WVlhExRkAAEhd1YfMqnab1Vf4K5B0zhhjllnoLwDoCEI0IAohGgAAAAAAaAntnAAAAACAlDRt2jSbPXu2vwQAp0eIBgAAAABIWWVlZf4tADg9QjSkLJ0sd+zY4S+dmrbbuHGjvwQAAAAAAFIRIRpS1vz5823ixIluDLRTUYAWlHjzDRUAAAAAAKmLEA0p64477rABAwY0TSbQXBCgqVrt9ttvt6KiIv8eAAAAAACQagjRkLIUoK1atarFIK15gKbADQAAAAAApC5CNKS05kHa1q1b3XoCNAAAAAAAEI0QDSkvOkgrLS116wjQAAAAAABANEI0wBMdpAkBGgAAAAAAiJbW6PFvAylPlWgffvihjR492l8DAAAAIKw0jIvoC3UAiIVKNCCKKtEI0AAAAAAAQHOEaICv/t037NgDt1jljyZZzfKfWuPh/f49AAAAAAAg1dHOiZTWWFlutWuXWs2LS73bZf7aL2SNm2JZY6dYxojL/DUAAAAAwoJ2TgBtQSVailu9erV/K7Wo6uz4Uw9Z5fe/bdXPLWoxQJPakjVWdfd0q5x5lbsNAAAAAABSE5VoIVNWVmYbNmywHTt2uNuaYTKYcbK5559/3tLS0mzq1Kn+mnBT1Vnd6xutdtMaF6K1R3qfAa4qLWfGbZbWp7+/FgAAAEAyohINQFsQooWEQrP58+e74GzUqFE2bNgwN0D+qQI00QljwYIFp90mDGK1bLaXwrTsybMsc/Q4fw0AAACAZEKIBqAtCNFCoLS01GbPnm1LlixxgZiCtKKiIv/elukxxcXFJ5ws9LggiNO+AgrotL9kC9tUbVa9fFG7q85aS9Vp2TNutcwRo6hOAwAAAJIIIRqAtmBMtBBQICYKxcaMGWNPP/20Ww4888wzNnHixBPWb9myxcaPH+8vRQI0nUBUwRYdoD3wwAPucdp3MlDVmSrONI6ZLp0doEnD4VI7/vhdVjHz2+66Yc9O/x4AAAAAABAWhGghsH37dlcldvvtt9vmzZvdOGgSVKip2FDhmC6BjRs3unbPwBNPPOHGRrvpppv8NWZbt261o0ePuu1iVbZ1t4bdO76YKGDxQ10SnrVEkw9U/vAaF+AxEQEAAAAAAOFBiBYCCstUVRYdiokCNAVqmjxAodnw4cPderVn6hIdqmkyAm2jarSg6kwTD2jfCuk0dpqq1ZpXuXU3hWVu9swfTXLjnsVzzLOO0HGpKk2zeirUazy8378HAAAAAAAkI0K0EFC41Xy8MgVgwaybCsEUsikQU8WZArPo7dXuqW01DoBaOYP2UF1rWUGctlG4NmHCBHdfd3Itm8t/ahVTL+myls32Uqun2kuDVs9EPlYAAAAAAHBqhGghoFbLnj17+ksRCtbUjqmJAubNm+faNBcuXOjCM4ViQVWZKs/Usql1Ct40dtp3v/tdtw/N8qlqNoVnl112WdPEBd1FAdSxBXdFWjafW5QwVWetpfZOVzU38yp3W2EgAAAAAABIDszOGQIKxJqPWaZ1mjzgVJVjqjJTaKagLGgDVcXaueeee8K+tF13BmcKmmo3rra6rSWhq+LSrJ4ZIy6znBm3MasnAAAA0A2YnRNAWxCiISG58GztUtcKmWwVZ+2hMC1r7BTLGjfFXwMAAACgsxGiAWgLQjQkFFWbVS9flLJjh6k6LXvGrZY5YhTVaQAAAEAnI0QD0BaEaOh2QdVZ7esbrWHPTn8tVJWWPXmWpQ++wF8DAAAAIJ4I0QC0BSEauo2qzWq3lFidG2Q//C2b7ZU+ZJhlf2cmrZ4AAABAnBGiAWgLQjR0uVRv2WwvJiIAAAAA4osQDUBbEKKhS6TaRAGdTVVpmohAoRoAAACA9iFEA9AWhGjoVKo2q1n7jNVt2eSvQTwxEQEAAADQfoRoANqCEA1x56rONq62uq0ltGx2kbSCIsu8fBytngAAAEAbEKIBaAtCNMQNLZuJQS2eavVkIgIAAADg9AjRALQFIRo6jIkCEpNr9Zw8yzJHj6M6DQAAAGgBIRqAtiBEQ7s0VZ2VrLHGw6X+WiQqJiIAAAAATkaIBqAtCNHQJg2H91vN2qVWp/AsiVo2My68zAVIDbt3WN3Wkyc5SCvoEbkuLLKM0eOsdu0ytxw26UOGWfZ3ZtLqCQAAAHgI0QC0Rbp/DcSkAK3qh9e4CrRkCtCyxl1nucWPWuNHpZbzl7db5tjrXHtj+uALLHPU2Mg2k2dZzpx7TYlyY0W5W+eCN+8i2laPCbZX6Kb7kq1NUiHi8cfvckEoAAAAAABoPSrROtHWrVttw4YN7rq0tNTKypJzsP1hw4bZSy+95CYMqF78kL82eeTe+YjV79nhqss0PpjaGhUCaswwXdfv3mEZfQdY2tkDrHbTand/7aY13vVUd3/du1u9x423NG9fqlSrKfG2GTfF6rdscuHasQduiTxREtFrL1j2ij3//PM2d+5cfy0QH0VFRTZgwAD3b8d3v/tdGzVqlH8PAABAYqESDUBbEKJ1AgVmxcXFLjwTfZhM5g+R+iB80003ufHPqh+/y1+bPHLm3GMNh0tdiKaqtMxR45vCscbD+y3nhltdaKYQTZMjaFnVaFrXWFEWWbY0q1m+yNL79HfbWWW5C+Qavf8df+AWb3+R6rVkofCv4Mn17m914cKF/logPvSFgf62duzY4Zb179+CBQvcv4UAAACJhBANQFsQosXZ6tWrbf78+e72jTfe6MInVWWERdXd05NuFk6NA5Z3xyNWt2eHZY24zCrvnmE5M261jMEXuPBLVWoN3iX7O7OsevlPLXvyTKvbssmFZFK3pcSNkxYdoqmSS8Fc9rU3WuUPr0mqyRXUiqr21uD1AZ1FQdrTTz9tzzzzjFueN2+e+3cRAAAgURCiAWgLQrQ4UoCmCjRVW+gf4bBWXaiCq7ZkjdVtesFfk/gUemn8sobdO10Vmlo8FYJpkgGNEyaaeECVaVZY5Na55cpydzt98DAXlKmdMxC9v2SgADBz7BTLvnaWpRWEJ9hF4lOYpjeouiZIAwAAiYQQDUBbEKLFiT4cTpw40VWdhTlAi+ZaJEvWRNoeFT4lEVVh6fgb9uz014SXJkDIvuFWyxzBuFToPmrx1L+R+rdSYyyqTRwAAKC7EaIBaAtCtDiZPXu2bdy40TZv3pyS4/64MM271L+XXK2eYaWWTc04StUZEknwZYMCNN6oAgCARECIBqAt0v1rdMD27dtdgDZ16tSUHThbs1XmP7LCzfiYOfY6fy26mqrOcm6+xwqe/bXl3HAbARoSiv59VCunJl0JJl4BAAAAgGRBiBYHGgtN7rjjDnedyjT2WF7xoy5M07hjGjcMnUtVZ2pPzXt4uQsyqT5DItNkK7JhwwZ3DQAAAADJghAtDnbs2OHak1K1Cq0lCtNUnVa47Ncu3MkcNda/B/Gi8Cx7xq2u6izvvp8z5hmSgsaN1L+Xqt4FAAAAgGRCiBYHCtEI0E5N4U7evKeaWj2pTusYtWwqmCxc/TYtm0hKCtE0PhoAAAAAJBNCtDjQrHOqrsDpBa2eqk6j1bNtIhMFzGxq2aTqDAAAAABgdY1m1Q1mn9SYHT5utrcqctld+cVtXXTf0drI9mg3QjR0ixNaPZmI4JTSBw9rmiggd869hGcAAABAO2lio9ZUw6vTiKEnkLAUgikQU0j25lGzLZ+a/eYz7w+33GyXt27fscjlgLdNcFsX3fduWWR7XbT9fm99ZZ2/Y7QGIRq6lWv19CciUFhEdVpE0LJZ8OQ6JgoAAAAA4mD+/Pk2ceJEF5Kdiu6bNm2aLVy40F8DJAAFZwq8ghBMgZhCsvYGYNqfKtf2VEWCuN9+7u2zIlLRhtMiRENCUKunwqKg1VMhUqoJJgooXP0WLZsAAABAnC1ZssQNw6OQrKUgLQjQtI22Bbqdwi5Vkf32s0jgpXbMznC83uxwdaSiTUGdbqNFhGhIOGr1VIjUNBFBQQ//nnBSYKjgUC2bTBQAAAAAdA5NBrdq1aoWg7ToAE3bMHEcupXCsw8qIlVnGs9My11FQZ2q0lSdRph2krRGj38b7TRo0CCbOnWqLViwwF+DeGo4XGr1775h1csXWePh/f7a5KZgMHPcFMscPY6KM6Sc4uJiW716te3du9dfAwAA0HU0LpoCs+gJ4oLbBGjodqo8U+tmVwZnp1OQaTa8h1kONVjCTwEJT62eYZmIIGjZZKIAAAAAoHtEV6QpUNOFAA3dTuOb/ebzrq88i8Ud12eRcA+EaEgu0RMRuFbPJJmIIJgooHD127RsAgAAAN0sCNJ0HX0b6BaqPNMA/9X1/ooEpHBPLZ4pPvkAIRqSkqrTFKYFExGkD77AvydxqOosa/JMy39yHRMFIGVpZqsxY8bEnE7+iSeesAsvvNC1UgAAAHSFIDx76aWXCNDQPVRxpvHHNGlAMtAEBJp4oL2zgoYAIRqSnlo9C55cb/n/sC4hWj1VdZZz8z1NLZsZg4f59wCpZ/jw4U3jjpwqSFOAprBt/PjxTeOSAAAAdAWFZ7z/QLc43pCcM2EqSFPV3EepOekAIRpCI2PIsKZWT1WndXWrZ9Cyqaqz7Gtn0bIJeBSMadKVUwVpQYDG5CwAAKArNVaWW83yn1rFzKus0rscf/yu0ExihiQQBGjJXNGl2UNTcJw0ZueMA2bnTFy1JWvcpf69N/w18RVp2ZxFaAbEoNk4NSunvu3VZevWrXbHHXcQoAEAgC4VzPqv65aoyyVr7BTLGHGZvwaIsyBAS+Txz9picIFZ/1x/IfwI0eKAEC3xNRwuternvJPle2/E5RsmVZ0pONPJlfAMaJ0gSIvGv50AAKCzqeqsduNqq9tacsrwrDmNwaxZ9TMvH+++OAfiQmOghXFMsWHefyO9sv2FcCNEiwNCtOTRWFlmda+XuG+f2hqm6eSZOW6KZY4exyQBQDtFB2n8uwkAADpTw+4dVrPpBasrWeM+B7SHvjDPvHyc5cy4rcuHi0EIaQIBzcQZNplpZpeeYZYT/hHDCNHigBAtOdW9u9W1etZ5J9bToWUTiK+NGzfa9u3bXTsnAABAvMVq2WwvdaGo1VMtn0Cb7asy2xviMcRyM8wu6RkJ1EKMEC0OCNGSm1o9a9YutbotJSdUp7mWzRtupeoMAAAASHCuZdN7T1/z4tJ2V521VlOrp/c5geo0tIrGQfvtZ/5CiGlsNI2RFmKEaHFAiBYeta9vdEFa1uXjvBPiAH8t0MWqD5t9vtmsrsJfgaST09es93h/AQAAdBZVm9VoIjF9Id7J4VlLmIgArfKbz8MzkUAsI4rMemb5C+FDiBYHhGgA4kYB2vvF3vUhfwWS1sAfmPW9zl8AAADx0p6JAjpb+pBhlv2dmbR64mRhb+NsLuRtneEf9Q0AkslnmwnQwuLw6cdbBAAAbaPwrGb5T63y+9+26sUPJUyAJprE4Pjjd1nlzKvcdVsnMUNIqY1z/3F/IUUcrw/1ayZEA4BEUk8LJwAAQDSFZVV3T7eKqRdb9XOLuqVts7U03rImL6uY+W079sAtCRX0oRvsrTKrS8HmvwPHQvu6CdEAAAAAAAnFVZ29uNQqf3iNC9CSMYzSxGU6dlWnKVijOi3FqArto2p/IcUoQAtpNRohGgAAAAAgISgsO/7UQ00tmw17dvr3JC9Vp7lWzx9eQ6tnKlEVWioLaTUaIRoAAAAAoFsFLZu61K5dmtAtm+2l1xS0errX6d1GiB2t82+kKAVoh8NXjUaIBgAAAADocsFEARVTL0nals32chV3/kQEtWuXUZ0WNoerzarr/YUU9kmtfyM8CNEAAAAAAF1GAdKxB+ZEWjYTfKKAzuZaPZ960FWnKVRLpSAx1D6p8W+kuKO1ZhXhqsgjRAMAAAAAdKpgooCgZbNuy6aUDs9aovZO/WyCiQiQpNTGSIj2hZBVoxGiAQAAAAA6RdCyGUwUQKVVbE0TEcy8iokIkpGqr/CFkP08CNEAAAAAAHGlsExVVRVTL075ls32UpgWTERw7IFbrG5LiX8PEtrnhGgnUIgWolk6CdEAAAAAAB3WNFHAzKtSbqKAzqYATUFa0OpJdVoCq0zxWTlbEqKfCSEaAAAAAKDdFJYdf+qhLyYKOFzq34N4C1o9g4kICNO6VmlpK/62jxKinSREkwsQogEAAAAA2qzu9ZKmiQJq1y6lZbOLBa2e7ufPRARdYsyYMTZx4kQrKzvF33pFvX8DJ6gMz8+FEA0AAAAA0CpNLZtTL7FjD95Cy2YCcJWA/kQEmryB6rTOc/vtt9uOHTts2rRpLQdp9Q3+DZyAMdEAAAAAAKmCiQISn1o9a15c2tTqScAZf3fcccfpg7RjVKK1iDHRAAAAAABhpzbBoGUzmUKZjBGXuUtHpBX0sOwZt1rOzfdYWp/+bjl98AX+vYkt+L0FExEgfk4bpFXHpxLtwJHDtuAXP3OXg58ctvKqStv14W7/3s7z8lubu+R5kllao8e/jXYaNGiQTZ061RYsWOCvAYB22v/PkQs6pLyqziqq6u2c3jn+mm6Q09fsouf8BQAAOkerBjpvowEDBrhrhS+qaEoE6Qqxzh7gruv37LSMwRdY3XtvuNbFrLHXWWNFmdVt3eSCrszR4yxjxChXmaWx2rQc3B/sK+PCSMDW8NF+a/D2lzlqrFuW2k0vuOucOfd4+yuyeu950r9ygTV622ZNnmVVd19vaYVFluGt0zGkedum9RngHV9/s8pyq393q7tf6xIleMy98xHLGjfF3e6Mv5lUtHDhQlu9erUNGzbMVq1aZUVFRWZ7q8z2HfO3aL/7lz7i/V012qXnXWwHjxyKhGilf7DHfvCAC7kOeOu+cf7FpjRn14d/sB75hd42FTbyvItc6CZDzx3ittV6Xfr17msf7PuDXX3JGO/eNHv5rdfc47Ss0E77Wf/6v3nLV9hVF1/hbo/0nl/7iYsre/k3khshWhwQogGImziHaJOK33HXenP32G1fs6ED891ye6179Yh3Iq+2m6/13iR2kvlL9ti82YP9pbZ5+c3P3HW/3tm2y3sTc82VZ7nlbkGIBgDoBApA9MH9+eef77QwZPz48bZkyRI7tuDHVucHSt0ta9x1lj3jdhdQKSDTtT7I6j1O0FqqoMyFZ3t2WKZ3Xfv6RssYMsyFaRmDh1n18kUu1ErvM8Db7ltNj6l/7zeWOToqRCuJvGaFTqpE02P02KzR4yxr7BQ7tvBuy7vjYW/dTy1nzr1W/dSD/vUDlj54uHc8R93z1XmPq9uUGFVgChLz7vu5zZ8/35555hl/LeKlKQ+IU4i20vu7WfnvL9jIoRfZzf/j+7Zu87/Ztl3v2M2Tvm/zlz1s1//5FHf/9X9+na17fYO3/nu27YN37LyBX3XVZNdcPsGFY4t/9awL3xTC9cgvcPseOfRie/ntzTZ0wJCmfS5Y9TPv+i/dPqd7f+NP/eqfrXjaX9vidf9sT8193IVtHUaIhgAhGoC46YQQbfHfnW8vb/vMdu2rciHatvfLXYXW9RP62Pwlf3TrdN9T3nZzfvK+96hG776+dvWlZ7p9rNxwyIVTIy8osnN65dj61454J+I6m3Rlb7vK2+bx5fu85Xq7f/ZXbPGL+91tXR677au2/tUjts7b/jzvOa4a+SU7+PFxt6+hAwuanj/6+XTf3EW/t+IZA7W66bF3ess98jPtwJHqE55vhXdsqjj7wDv++2cPtvuX7HHHPN3bn7bVPoNjCrYX/QwW3PY193MJfh7uOeOJEA0AEEdqGXviiSfs6aefdsuqftElqBqLpwkTJrh9a+wzTSKQCBSiqRKt8aNSS79wlNWVrLHMcVNcIFazfJGrLtP6rBGXWeVdM9z2ku1tU797pwvaajetcYGY2jyzZ9zm7lfgVrt2meXc+YhblmN3T3fXCp6CqjdVch174BbLueFWO/7UQ5Zb/KhV/fAay3t4hQv0Mr19Vt09w+07Z8at7rgqvfs1EUMiUAVd7px7XAvihg0b/LXoiCDQVgWaKtH030y8QjQFYecNHOKu172+0YVlb+56x4VjK/99jatIm/S3022St6zKs3mz7nIh2vrXN9gHH/7BVty32O1HIZoq0FS5Fk3B2+IfP27rNkf+FhSW/eeSf7e5T97nwjeFaldfrIo1s+vHXmdDz/2qu90hhGgIEKIBiJtOCNEUQilkmjO5nwuTCvMzbf4/7XGVaQq55s3+iv3ZX7/pqr8UmE26oret3HjYfrXgItu2s8wWrz3gAjaFUQqb3ny/zK7xttF6BU/bdpbbNm+dwjiFXgqnFr9Yaldf+iW733ue//jHS1112cjzi2zBin0276+859l4yK4f39ceX7HXbp48wM45K8ttL9/4/m/sP5/9VlMAuGD5XnffNVf2trmLdrlgrNHS3HEoKLv52gG2a2+lCwKD9s3gOJvfHyy/vO1T7w1Fjjveq0eeaT3yMlyQF1eEaACAONGHdY29pGtVid144402evRo/97OoyotjauldsfudqoQrdE7tqzJM828Y1VlmBsLzY1blmZ172517ZUax0yh1rHH77LGw62v3suePMvtW5VsahutWbvU8h9eYccf/7HlzrnP6nZvt4whw+34gh+7cE0hmhQ8ud4aDpW62UsTgVpX84ofce2liI/gv0mF200BmsS5Eu2cXn1cxZhaLOcve8TmzbzLFqx6sikYU0WawjWFaPJnt33Hrr74cm/5brd8qhBNtu161/tsUG4LfviAax9VtZnaPeeo8u31DdavV18XyMWlEi0zzWx05L1+siNEiwNCNABx0wkh2s2T+9vVI89wy//DW37s1q/Z3J/+3u6cPshVlSkIm37v71y4tf61j124pZZNhUq79lXa/Uv+6EI0VYBden6Ru0+BVqSKLc/tNxh/TKGUgq+nXtxv3/C2Xby21B67bagfhJ3pQjQ9v0I3hVcHPq7x9nfce55jLtSTIET7s7/eZise/Lrblx6r7VVppv02eufhN3dGQrLgeHVb1WoShGiqmLvmirNcgKbbulbFmtpSAwr/FCrquYIQLi4I0QAAcRD9YX3evHnuc0dXUxil8dG6s7VTY5NFU2WZ1gXXwTpxYVGF3+Kp+/3l4P62cPsu9J7HD9+in0v7bVrv31ZFXO6dj1qN+3l1XyunxoZTa6tCQLW2In5OGaDJoeNmv6/0FzpG45hVHKuwc3pFvujVsijQOvjJIbc+ep3GPyt+8j67f9aP3VhmEtzfXLCPwrzCpoAsWJaW7u+Q3HSzb0a6XJJdxv0e/zbaSWXV+g9HZc8A0CHl70QucaIgaeY153gnv0zLyUq3Px1UYFVlvXtm2d/8xbkufPrTwWOupVHtju/trrTfeZfzBuW7lstePbPtk6M19uy/HnSVZL28x2VnpVm/s3LcY9XiqeeoqW20rw8psIqqOhs/qpft9fY51NuH7le1myrgLhzSw4VvqkL78jm5LhRb8x8fufsuH9HTPZ8o7NrrHafGM/uHf/nQVdJN+S993H3a5+K1+73nrnHHr/ZPbavlOdf2d8elfSoY02tWEPgPz3/oQj7dr6BttPdcnxyt9e7PcMe75b2jfkgX52/HMr03HH0jrSQAALTXxIkT3Yf2tWvX2lVXXeWv7Vqq4sq6fLwbI0xjfdXv2eEqvLpUbfWJl2BdcB3cFoVl0euC5fbQ46LDt+b7Dfi30/qeaw0f/sHqfv2vbrmruRlF/+IWy/u7n7rfl353iJ/TBmhSUWf2aa2/0DE5WdknBFha1kWC9dHr/nRon2vFDAI0Ce5vfhHtI7gtwfKp7u+QgkyzPt044VccUYnWRmPGjLHvfve7bkrbQPNKtOA/LIVq9913n1sHAK0S50q001FYpfHHFDYpUGrvYP6no/ZL71Tj2klVoRbXSi/PnJ/sdO2ZI8/v4a9JIFSiAQA6SJMHzJ071332uOOOO/y1iUGVabpo5kp0P7VsZt9wK1VnnUx5wCkDNKmoN3vrc38BTXplmw1LwPfr7UCI1kbFxcVu8ECdxIIgLTpECwI0XStAu+mmm9w2ANAqXRiiBVRRFu9wK5rCuqDNMqUQogEAOkgf2GXz5s3uOhFpvDBNQFC/pcQSZRD9VKGqM40LpwkQCM+6xsKFC5sm3mhRXaPZlk/9BTTREDCD8v2F5JbuX6OVFJQpMNN/PGrjjBYdoClgI0ADkAw6M0CTlAzQAADooO3bt7vPFZpIIJGpXTCv+FErePbXbgbLtD79/XvQWdIHD7Ocm++J/Mzn3EuA1oVUTHPKAE00gH4OMctJCjP8G8mP3247tBSkNQ/QEq3cGgAAAEDy2Lp1q7tO9BAtoAH3NQZX4bJfW97Dyy1zLOOCxpubZdP72RY8uc6yr53VNMkBEkzPLP8GmhSG50t1QrR2ig7SRCc5AjQAYaBJBtSC2R4a6D/WY3W/tjudlRsOuQkQAtt2RmbabK3WHAcAAIlM4y7J8OHD3XUyUWWUq05b9ooL06hOaz83UcCMW61w9VuW/8gKqs6SQYiqruJCM3PmUIkGTxCkBQjQACQ7BU8Llu91LZi6rUBNFEpNv/d3bl30etFyEHhFwq9jbpy1lrbVdrv2Vtnjy/e55WCb4CJ6bGR2zYymx6977Yjbb7AcbKtr7VPXunzj+7+JrNtbaSs3HnbbAACQzIqKkrfaKGj1VHWaWj1VSYXW0c9KPzO1bObccBtVZ8lEg+jjCyGrzMu43+PfRjtoUEF9SzRp0iT7wQ9+4K8FgHYqfydy6Sa/+0OF/W53pV098gyb85P3raa2wUre+NRd/253hV341UL7h38ptU+O1tiz/3rIehRk2I8X/d7+dPC4fVJW66779c62BSv22XmD8u0ny/5kB45URwKtNLO/X/ZHK6+qt4NHauz6CX29/dTajQ/stC/3y7NbvOe7cEih99gP3WP6nZVrf/PYLquoigRnV488s2n5fz9f6u2/wC3r2BavPeBtn2MbvWPVMfY6I9u2vHvUxo/q5b+ybpBZaNaXVhYAQPuo00WXsHxJnzFkmGv31CD4jTXV1rBnp38PAqo6y/rv0y1n1o9dcKafWVp2545di06QmW52uNqsnjkcnUF5ZiEaI5lKtDiYN28ekwgACIUDR2pcCKZKNF2r+mvooHwbeX6RndM717/O9oOwatdmef34vvbYbV+zqy890+3j/n/6o00f38dto0ua229k25snD7Cbr/2ipaNf7xzT24v1rx5x1WfrXzvi7ecMd9+Bj6vdY+fNHmznDcxrcVmBWoX3HKJ9iY5Dx67nBAAAiUXBUNDqyUQEEUHLJhMFhEgfwk9HrZy9wvWzIETrIE3jXPPiUqstWeOvAYDkFQmfalxLZHlVg11zRW/XoqmKs4NHjru2zle8i5ZFwZdaLRes2GuLX9zv1t3/V1+xxWv3uwBNLj2/yL5xfg8b6V1WbDzkArNoCs127at0lWna18gLIu0KqizTcazccDgS7nnLjd7/1G6qZR2DAr2hAwtcgKbbagHd9n6ZlVfWMysoAAAJTK2ewUQEuff+Y0q2egYTBRSufpuWzbDpn+ffSHEhnGQhrdHj30Yb1L/7hlUvX+SuAzoRZIy4zHJmeP8A8o0KgPbY/8+RSzdRaDXj3t/Z8ge/7irNPth7zLV2KpB6edtnrkXzg71VkfHKjtW7qi9VmCnU0nYa70xhl6rEVDZ2Tu8c7361Yn6xj+jHiirGNK6ZQraXt31uk67s7fYZCc00qUC5C/e0rPtHXtDDFr9YatdPOMcFZ8H9Ct8Uxim8W/fqERfcXXPlWe45ukVOX7OLnvMXAABoG01g9sQTT9jevXv9NeHXcLjUqp/zPmO994Y1Ho58ORc2qjrLHDfFBYgZg4f5axFK7x41O5riE11964xQTSoghGhtoKqz2rVLraZkjfePeqm/tmUK07Inz3I9/wDQat0cokkQYCkASzTrXv3YtXwqcLv52gH+2pMpRFMY160I0QAAHZCKIVqgsbLM6l4vcUULYQnTVHWmz4ZZ46dQcZYqjtaavRuZZTclqQptRPj+1gnRWkHVZrVbSqxO4Zn3D3pbqDpN/e3qa6c6DUBMCRCiIU4I0QAAHZDKIVq0une3uqFz6ja94K9JLgrPsm+IfB5ECkrlarQLi8zOoJ0zpejbj5pfLj2hZbMjVLKr6rT0wRf4awCgGUK08CBEAwB0ACHaidTqWbN2qdVtKUn46jQ3y6b3uS/72llUnaW6VK1G65VlNiycf/uEaM00tWy+uLTNVWetpVbPrLGRPngAOAEhWngQogEAOoAQ7dRUmaaLxk5LJK7q7NpZ7vMe4RmapGI1WgjHQgsQovlUbVaz9hmr27LJX9P5mIgAwEkI0cKDEA0A0AGEaLEFExF0Z6tnMFGAxjujZRMtOl5v9tZRs7oUiV765ZoNKfAXwielQzRXdbZxtdVtLYlby2Z7qSpN1WkK1QCkMEK08CBEAwB0ACFa6ylM0+e5rpyIgJZNtMn+Y2Z7qvyFEMtNN7vkDLPMNH9F+KRkiNbg/cNat2lNp7ZstlfTRASXj3f/MANIMYRo4UGIBgDoAEK09ql9faObEK5ua+d0GDFRANotFdo6Q9zGGUipEC34dqK7q85ag1ZPIEURooUHIRoAoAMI0TomaPXUuGkdrU5rqjobN8X7bDbAXwu0kdo6NclAdYO/ImQG5psNyvMXwiv0IVpXTBTQ2ZiIAEghhGjhQYgGAOgAQrT40SQE7Wn1VNWZxjrLGj+Flk3ER2VdJEgL2/hoIR8HLVpoQzRVm9VuKXGlvMkanjXX1Oo5YhTVaUBYEaKFByEaAKADCNHir+7drS5QizURgQvOJs+kZROd43C12a4KfyEEemaajejpL4RfqEI0VZ3Vv7PVan65NClaNjtCVWnZk2dZ+uAL/DUAQoEQLTwI0QAAHUCI1nnU6ln3eon73BhUpzFRALpUWIK0AgVo3n8vIZ5IoLlQhGhhaNlsr/Qhwyz7OzNp9QTCghAtPAjRAAAdQIjWNVSdJlSdocsle5CmCrRhqRWgSbp/nZRUbVZ193SrmHqxGzQy1QI0adi9w44/fpdVzrzKXXfVlM4AAAAAkOwUnhGgoVv0yTG7tKdZThLGMhoDTS2cKRagSdL9tlR1poozhWe6hL1ts7VUkqz+/oqZ33ZhGj8XAAAAAAASWNAOmUxB2uD8lJlEoCVJ85tyFVdPPWSV3/+2VS9+iJDoNBSmKWBUdZpuU50GAAAAAEACys0w+9aZkequRJabHqmc65/nr0hNCR+iBS2blT+a5MY9S8WWzfZSdZpr9fzhNbR6Askio9C/AQAAACBlqLorUavSFPBdckakci7FJWSI5lo2l//UKqZeQstmHCh4DFo99fPUbQAJKn+IfwNJr8cI/wYAAADQCj2zIlVpA/MSI0zT5AGqPlPAl4Ljn7UkoWbnVFhWU7LG6reUUHHWydL7DLDsybMsc/Q4S+vT318LICF8ttns0Av+ApJSj4vM+l7nvdmgshAA0D7MzgmkuOP1kRk8dalu8Fd2EYVnA/PNzsjyVyDQ7SGaqs7qXt9otZvWUHHWTbLGTbGssVMsY8Rl/hoAAAAA3YkQDUCTw8cjYdrROn9FJ1Cl2dk5Zr2yCc9Oo9vqA4OWTU0UwGyS3av5RAQA0Jl27NjhPhgAAAAAaIU+uWYjepp98wyzoQWRSrF4UMuoxju7sMhs9JcibZsEaKfV5ZVoCsuqly8iNEtgavVUVVrOjNto9QQQd8XFxbZ69Wq+WQcA4DSoRAMQ0+e1ZpV1ZscbItd1jZFLvX8twdhqml1TM4EWeJcc76KwjHHO2qxLKtFc1dmLS90skck+UUBaQQ9LO3tA5OLdbi5z1Fj/VvLSrJ7BRATHHriFwBMAAAAAgESjIKx/nj+zZ0+zS8+ITEygqrIre0UuWtZF9w8tjGzfO5sArZ06PURr2L3TtWxWL37IGvbs9Ncmr5w591rBIyssr/gRy7x8vL82Iq2wyNL7nmvpg4d5293jr01udVtKIq2eP5rkwlAAAAAAAIBU1Okh2vHFD4Zups3qF5fasQV3uQkRcu98xLU+5j+5ztLO7m8Zo8da1rjrvMtUSx98gf+I5Newe4fVlqz2lwAAAAAAAFJL51eiHdrv3wqPrMvHWc4Nt1r6kGFucoS8+34eaXmsLHfjidW9XmINu7eHovIuWmNFuMJQAAAAAACA1ur0EC372pn+rfCof3erGzNMoVLGiG9Z4+H9ltG86qywZ4tjpiUrvZbscVP8JQAAAAAAgNTS+SHa5FmRlscLL/PXJLf6996wtD4DLGvcFDf2mSYYqHrgFqvbusmssMiNIdbwx51W/85WV6mW7BSeZU2eaQVPrnevGwAAAAAAIBWlNXr8251Osz5WP7fI6ja94K9BooqEZ7Ms+9pZ3u0ify0AdFxxcbGtXr2aKfsBADiNhQsX2hNPPMH5EgASSKdXokXTeGF5xY9awbJXXHVaWp/+/j1IFKoYzHt4uRWufttybriNAA0AAAAAAMDTpSFaQGGa2iELl/3aBTaZo8b696A7uPHOZtzq/T5esfxHVljmiFH+PQAAAAAAAJBuCdGiKbDJm/eUq07LHHsd1WldSFVnOTffYwXP/jpSdcaYZwAAAAAAAC3q9hAtELR6qjpNrZ7pzWe7RNwELZuqOmPMMwAAAAAAgNgSJkSLplZPzQbpWj3HXuevRUc0tWyufouWTQAAAAAAgDZKyBAt4Fo9/YkI1HZIq2fbuaqz+37ORAEAAAAAAAAdkNAhWkCtnmo7DFo9FQzh1FR1ljV5ZlPLZubocf49AAAAAAAAaI+kCNGiqdVTwVDTRAQFPfx7kN6nv2vZ1EQBuXPupWUTAAAAAAAgTpIuRAsEExHkP7neVaelcqtnMFFAwTJ/lk1aNgEAAAAAAOIqaUO0gMI0Vaep1TOVJiJgogAAAAAAAICuk/QhWrToiQhcq2cIq9NUdaZJFtSySdUZAAAAAABA1whViBYIWj2DiQjSB1/g35OcVHWmyQGCiQI0yQLhGQAAAAAAQNcJZYgWTa2eBU+ut/x/WJd0rZ5By6aqzvLu+zktmwAAAACAzlHXaHa01mz/MbPdlWa7KszeLWv5ovv2Vpl9UmNWWefvAAi/0IdogYwhw5paPRN9IoJgooDC1W/TsgkgqW3cuNEeeOABf+nUduzYYfPnz7eyMu9NGQAAKYbzJbpFEJopMPvNZ2ZbPo0EZHuqzA4cNztcHbm/pYvu23fM+6MsN3vzaOSxuq311Q3+EwDhkzIhWiB6IgKFaQqsEoGqzrImz2xq2aTqDEAYfPjhh/b0009bcXGxv+Zk+kAwbdo09wECAIBUxPkSXUohmIKz334WCc0UmHU0+FIgp6o0VagpkNN+CdQQQikXokVTmKbAqjsnIkgfPKxpooDcOfcSngEIlZtuusluv/12W716dYsfDIIPBEVFRbZq1Sp3DQBAquF8iS6hkCtox1RwpuCrsyioU6D25ueRa8I0hETG/R7/dspKKyyyrMvHu1AtfcAQq9+zw6yy3L+3c6gCLrf4Ecu98S7LuOASS8vO8e8BgHAZPXq0u37mmWestLTU3daHgQkTJpzwgWDAgAHuPgAAUlHz86XOj1u3buV8iY5ToLWjIj4VZ22lp6usN9vvP3dhpllmWuQ+IAmlNXr824hS9+5Wqy1ZY3WbXvDXdFykZXMWs2sCSEkLFy60J554wl8y92GADwQAAJwoOF/qHKmxzzhfot2ON0SqwBSiJYrcDLOBeWZ9KCJBciJEi6HhcKnVrF1qdVtKrPHwfn9t26jqLHP0OMsaP4XwDEBKiw7S9EGADwQAAJyM8yU6TDNsauD/zmzZ7IieWWbnFZrlpPQIU0hChGhtoMo0Xerfe8Nfc2qqOsu8fJxljp3COGcAEEUfDDTmCx8IAAA4Nc6XaBeFZqo+0/hniU5VaYPzzXpl+yuAxEeI1g71u3dEqtNaaPWkZRMAAAAA0OXUvqlJA6rr/RVJYlB+pMUTSAKEaB2gVs/6d99w1WkuPLt2FlVnABBDoyZuqThqaX34Vj1Uqg+b1RzyF5B08r5qllngLwBIBJwv0SaVdWbbNQtmkgVoAYI0JAlCNABAl9CXDtXLF7lrSfc+FGTPuNV9+ZDWp79bhyRV+s9mB7wLkldGoffh5QdmZ433VwDoLjpP1qx9xuq2bHLLnC8RkwI0VaAl6vhnraXJBoZ65yMggRGixYGmoR41apQNGzbMXwMAEH2LXrtxtdVtLWkKz5pT67vGkMyZcRsfDpJR2Ttm7xf7C0hqCtJGrvUXAHSl1pwvJWvcFM6XOJFaON/6PPkDtED/XLPBVEYjcRGixcGgQYNs6tSptmDBAn8NAKS2ht07vA8Cm6zmxaXeB4Myf21sGSMus6yxU9yHBCSJIxvM9jzqLyDpfStS+QKgazQc3m91m9ZwvkT7JOsYaLHQ2okERogWB4RoABDRvGWzvVzryuRZljl6HN+2JzpCtHAhRAO6RDzPlwrSFKhxvkwxqjx782j4ArTAeYVmZ+f4C0DiIESLA0I0AKnMtaCsXdrmb9FbK/hwoG/dkYAI0cKFEA3oNJwvEVd7qsz2H/MXQigzzezSM8xy0v0VQGIgRIsDQjQAqUjfntduKbG6kjWd8mGguWBgZVpXEgwhWrgQogFxx/kScXe42mxXhb8QYj2zzEYU+QtAYiBEiwNCNACpQt+i172+0Wo3relwC0p76cOBvmVnYOUEQYgWLoRoQFzofFn/zlar+eVSzpeIr7COg3YqmmRAkw0ACYIQLQ4I0QCEXWe3oLSXxkzTN+26RjchRAsXQjSgQxL1fKkwLRhrFEnugwqzj6r9hRRAWycSDCFaHBCiAQgrfXsej4GPO1vQupI5YhTftnc1QrRwIUQD2oXzJbqEqtB++5m/kEL65JgNLfQXgO5FiBYHhGgAwsR9i75xtWvZbNiz01+bPFSZRutKFyJECxdCNKDVgvNl3daShA/PWqLzparT0gdf4K9Bwku1KrRoGhtNY6QB3YwQLQ4I0QCEQcPuHVaz6YUuG/i4s6l1RbOUMbByJyNECxdCNCAmzpfoFqlahRZgkgEkCEK0OCBEA5DMkqUFpb3UupJ5+TjL/s4sqtM6AyFauBCiAafE+RLdKpWr0AKjvxQZIw3oRoRocUCIBiDZJOrAx51N37Lr23Z96444IUQLF0I04AScLzlfJoRUr0ILDMz3Pnzn+QtA9yBEiwNCNADJQt+e15SssfotJSn1YaC5poGVLx9vaQU9/LVoF0K0cCFEAxydL2u9c2VYWjbbi/Nlgjhcbbarwl9IYapCUzUa0I0I0eKAEA1AIkv2gY87kz4c6Ft2JiLoAEK0cCFEQwrT+bLu9Y1uYh3OlyfifNnN3j1qdrTOX0hxTDCAbkaIFgeEaAASUaq2oLSXPhxolrLM0eP8NWgVQrRwIURDCuJ82TY6XzIRQReilfNE/XLNhhT4C0DXI0SLA0I0AIlE356HeeDjztbUujJiFN+2twYhWrgQoiGFcL7sGM6XXYRWzhPlppt980x/Aeh6hGhxQIgGoLsF36LXvr7RGvbs9Neio/Qtu6rT0gdf4K/BSQjRwoUQDSEXDHGglk3Ol/HD+bITMSvnyZilE92IEC0OCNEAdBd9e87Ax52P1pXTiBGiHThSbSs3HLKKqnq7+dr+dk7vHP+eiIPe/RKsD5YPHKmx8qo6u/rS9n/bvGD5Pu85+1mP/Ex/Tdu9/OZn7piuH9/XX2O2a1+VbdtZ5h1fvfU7K8euuaK3W69t9Vwjz2958O31rx1xrzO4P9b2rbHt/XJ3fMExdBghGkIqEc+XOXc+YtWP3+UvtV1aYZFl33yPv+S9Ru/1WUEPq9v0gr/GLH3wMO8c9i2rXbvMX9O50ocMs+zvzOR8GU9vHjWrZDy0EwwrNOt14vsJoKtk3O/xb6OdnnjiCRs2bJhNmDDBXwMAnUsfBo57b7xrlv/UGt5/26yWbyg7U+Ph/VanD1/eBxNVLmR4H0r04SUVbN261V0XFZ3i9VbtNvvsdX/hZItf3O/9f5qNv+xLtnLjYbt65Jm27rUj9vt9VXZO72z7Xz/b7cIkra+pbbC/eWyX/W53pfXqmeVdV9jeg9XW+4wsFzZFPy4nK922vV/mAqQe+Rn2wv/7yL7cL9e7/tj2HjpuQwfm20+e/ZNdPuIM2/Lu5zZ0UIEL83p5+1LwtOXdMsvJTreNWz895f5Fxzd9Ql+r9o5t5YbDdvCTGsvOTLM1//GxTbqyt/XrndN0358OHnOPKyzIsPWvfmKflNW616Fj02v68jm5tnjtAfc40XMf/KTatu0sd2GcRB+/jnP9q0esR0Gm249+TjpuvU79rLStnlOhnn5+EjxG+zt4pMa2vHfU7T94jTH1/55/AwiHrjxfZk2eZRnnDnbVWBlDLnDX7pxx4WUuVGr4qNSssty7fZ27L/eG29xxNb8/2FfmyG+7L3EaPtpvmd515lXXuGXvn1R3Xko/8yzLnXOP1Sx71D1P4+dHLC3b+7fEe416fDCbZvZ/n27mnbN0nx7XmRo/+zhlz5ft8fzzz1vPnj1PfY6VP1T6N9Ckh3c+K2JyAXSPyDtEAEDCUwuK3mxXTL3Equ6ezhgu3aDhcKnVlqyxipnfdh/KUuF3MH/+fJs4caLt2LHDX9M2Iy8osl37Kl2Apko0BVVv7iyzAx8fd+tUmaVLEPD0653tQix55c3PrLyq1ooX/aHpceWVtX4w52lUSHfABUcKklR5duDIcftPbztVfUl5ZZ332E/c7RXe8x38uNo9Xvu9f8kef/+/P+G4gv2rEk77VaA139tWYd0B7/Hlx+rd/Qqndu2tsjk/ed/dp+MQLes1aD8vb/vcFqzYZ4Xe/cHPQvsN6PF6Ifcv+aP3eFXHNNq6Vz92Qdicn+x0+13n3dbxaZ33V+gdyx+bXmv0vlT1N3/Jbne8OoYPvH0vfrHUf41/8LcCwq+7zpc5k2e669xb7jMr6OmuFXrlFkdCrvyHV7oALXvG7Zbe51y3rQK07Gtnufvz7nzErZNG73zT+FHk4pYry5qW9fqiZY6dEgnuBp8fCefu+7nbRlVhCrDS3HOlWd69P488oAuk4vmyPR544AGbNm2alZZGfs8nqYicb9BMJT8XdB9CNABIcHrjeeyBOd6HgYut+rlF7o00up8+HOjDWeXMq9zt5h9qwmLJkiXuG3K9yW9vkHb/7MF2/fg+Nv3e3zW1QeoDXb9e2a6SSxdRkFboXc4bGJl1a+T5RXbNlWdZRVVd0+PKqxq8+/Mj9/uhlMKlqy4904VYqhrT/R/s/eKb+yBo0n5Ez6P9BtdqNY0+rmD/WlaIJdd7+9X+VQ3WnGunvLJ3U1umll11mHdMPQoy3OsLqs+a0zaqInOB3d4q9xyR4zCb91dfccsKExX+iV7/1Zee4Z5DP5+h/s9KFOppXbA/vd7onyEQdsH5svL73+6282VtyQvePzZHre71EqvfvcPSz+7vjkPVWWnWaGlnD7C6d7dazfJFbvv0vv3dNgq/1G4a0EzRmWOnuosqyhTGBcsKywLatwLDui1ftGLXPPdTV7mW5c823Xj4Q9O4qd1VEXbS+bKTq+GSyapVq6ysrOzUQVp9g38DJ6jgnIbuQ4gGAAnIfYv+4lL3plOX6DfHSCz6tl3fsutDm67D9uFgwIAB7k1+e4O0gx8fd1VRqsbSuF2TvIsbU+z9cjvwSY2r2FLVWBB0qRJNVVfN6XGqtAoeF1A4pyBNwdH08Wc3Va1NuuIsd79aIbXvuYt+75ZPpflxSRDu6fFqBQ0EIVdAr2uu97x6rESOqSoy5lleJIQTHb9Cuei2Sh2rqtB0/BoHToLgbvHa4G+p8Yugzduvjk9B2uPez/SVNz/1tzFvmzPsA+9noZ+3jkmBJBB2LZ0vE+nLpvo971t6QZHlPbzcO1/sd22OmYOHNVWFRY633DKGDHOzXQZ0PjnmvR5dVKWmYCxYdkFdFFe15l0CGuBfw15rv2mF7R9zMd6azpc/vCaU58v20JBApw3S/MpnNFPPsO7oPkwsEAdMLAAgnmrWLnVvlpOp4iy9T3/LvvleO/7gLe6b7tx7/9GOP3CLewMf0ADK7nX5rSlhpoqBvDsfDdWU/3pjrzf4eqOvN/x64++0YnbOSFVUvWvbDJYlCJO0HB0sqcoq2DZa88e15FTbNH+OlrT0WLVDWlqa3Ty5vzsutWW2tJ/mx9zSvhSYaTvtK1r0Y5vvJ3pZ+2z+c2zNsbQJEwsgiSTT+TKtz4CmoCutIFIRFn3c0ffHg/ZnFWUJ/7MJ4/myPfQFlc6x+sJK51h9geWo5X/fscjtDlrwi5/ZrtJIa/+kyyfYy29ttsd++IBbDsxf+ojNm3X6yS70uPMGDrHGxjR7c9fbdo23r9PR804aM96GnvtVf00caGZOzdAJdANCtDggRAO6nz7g6w3I0aNH/TXJZfjw4S6UqH93q1XdPcNfm1wKl71ixx6/ywVqmslS3zJnzbjNvYlX20rBk+vt+M8ftLS+A0yzhClU03Xm6LHuzX7De1st/cJRVr9lo2vJydZjPTW/XJqU31brg0H+wytc6LRhwwZ/bXLTf2eaTCd4k++CtFaEaMmuQ6FUlNYEed2OEA1t0B3n3jCcL3GiMJ4v22Pnzp329NNPN1WAuyAtjiHanMfutJsnfc9Gnnexdz6qsMXr/tmu//MptmTds1aYV2jTx02xmx+9w6aPnWoHjhyym//H97xzVqF3+3DTNtePvc7bT7H1693Xhg4YYuu3bLDHfvCA7fpwt3f5g1118Ri7+pIxbt8H3T6+b/cvfdg977Zd79rV3v1Dzx3iH1EHXdnLvwF0LUK0OCBEA7qH3rzrzcbq1avdG69kpg8EL730khvDRWObJKNI6NXo2lHqFIJdO9Oqn3rIBWr1e3ZYzuRZ7vVpBjJ98Onx0m6rumt6ZGaxXy617O9493uvPXvyTG/7ne6berV+6Lp68UORJ0ki+jkULHvF/Y1q4OCwCf5mUyFESymEaIhB59tnnnnGzSqo83BXC/7tUQtnMp4bcLLgfKm/qblz5/prU1vTZ8s4h2gKz3rkFbqAbP7SR10otm3XO3bN6AnWr3cfK37yPiue9gNb+e8vuGo1VZkpHFOQtnjdszbde0/38luveev/q9vnyk1rXDXb+tcj4efKTS/Y7Enf8yvU/qt77Mtvb3b3jRx6kQvV4oYQDd2EEC0OCNGArqc38AsXLnRv5keNGmXjx49339iddorwBHbuuee640/mb9b1TXLOjFstfchwq/z+la7yrOqBW9zgyJI9boodf+ohy77hNjt21/VWuPptF6JleuvrStZYzg232vHH77bcOx9248aoBcVdH/4wKceE0wxsuXdGwqUtW7a462SnihMFgid8S06IFi6EaDiNjRs3WnFxsTv36r9/nXsVarl/C7pIGM6XOFEYz5ftoS+FdTnhHNtJlWiqNLvlsWJbft9iW//6v7kgbeR5F9kK7/3Y4h8/bk/96ln7hredQrQFq35m1thoBz89ZFdffIX95wdvu2tVqS32tps3626b+7N77fo/v86WrPs/3mPGu7Du+rFT7eAnh1z4Zo1mPQoKXdVa3BCioZsQosUBIRrQtfQGXm8yFJ7dfvvtNnr0aP+ecNDMVdXLFyVlC6PaMYKBg1Vxpio0hWEKzzR1v7sufqSpwuz4Uw+67fSac264zVWu5cy5x1WkuUCuzwBXvVYXNWNZMtAHgpw59zaNexMGpxyvJQQhWvOxxuKts/cfV4RoOAW1cuvLK/23/9hjjyXEuTeZz5eIyLjwMve+wI3hlsL0vlbvb08I0CSOIZraKlVdFoRoGv+s+H/+0BavW+YqzW6e9H1XWXb/jXe5ME3bqTVT6xSyKQm7ZvR/dcGYqssUiM159E5XXaZt1Kaptk6NqTb3yfvM0szt8+W3X3PPq22uvuQKF8x1GGOioRsRosUBIRrQdVQFo/Y4hWd33HGHvzacal/f6MYMq3/vDX8NEllaQQ/LmjzLsq+dFarwTE4ZoEkIQrR1r36s9/p2zZWRGT0DmghAM3SOPL99s9vp8d/wHvufO8usR0GGXX1pErzhJ0RDC1T9PX/+fFd1pn8DEq3qO1nPl0EFlmYV1VigOXP+PzdRQvrgYW5WzVhV2BqLtPKuGUk3YU+Yz5ftccoATQ4dN/t9pb+AJrnpZt88018AuhYhWhwQogFdIxgr48Ybb7R58+b5a8NPVVuqxtKHA75tTzz6Fj37hlstc8Qof024nDZAkwQJ0RYs32cjL9CHsUbbtrPc+vXObgrB5s3+ii1eu9927a1y2wwdmG8rNxx228ybPdhefvMzO/hxjW17/6idc1aOe/zN1/Z3+5Sn/u58e9y7rYqy4hmDIjN2Wpq3rx728rbP3XNePfJMu+rSM912B45UW/H0gXb/P/3ReuRn2KQrIuFcj4J0W+E9ryYXeOy2r9r0e7e749N+9RwJMekAIRqa0bhnY8aMcf/tayyyRB42IdnOl3kPr3CT7+i467aWuGpuzTiaMXiYm6RHk/Vkz7jV+9cmzWo16c6WkkiV89nefQ/eYgXe9m6bybPs+IIfW/SM2InInS+vndU0zANiBGjySY13Ik7s32u36JllNoIAFt0j3b8GgISnVhK9uUilAE3U0phX/KgbYyz3TrU8pPY08Ikg8i36TO8D0HLLf2RFaAM00Zv7UwZoCcS1TFbWWXllvVV4t7e9X+YCKgVm294vd8HYNVecZetf/dhto3BLAZp7rLesx5dX1btqMVWeucDNu54zub+t3HDIbTfy/CJb/OJ+f7sz7Prxfd310EH5Lkx7fPle7zl62/3ab5q27+FCt8i+6+ypFw/Ygtu+5h1TnnccR9ysn/fP/oo7ll1xatcB4k0tnJKIFWjNBefLwmW/TvjzpUKyjMEXuOELNKyBKtEaD5dazYvLrHbTaqspWePWqRpNk/NkjR5nOTffa7Wvl9jxhXe71yp59/3cBW+JGqCddL4kQDvBaQM0Kcjwb+AEaucEugkhGoCkEMwCFvYWztNRy4PeaOvDgd6MZo69zr8HXUUtNqoKKHjW+4A2595Qh2cBjX2U6AFa4IN9VS6YErVmXnXpGa4aTSGZfOOCHi5IEwVXpxJdEVZ+rM5tq/HMFIopNJNzzsp1FWwK6IaeW+DWFXqP0/Pv2lfpgjY5+HHkeAJar0vw/NpvUoyVhpSk864qZdRxkQz/BkRL9POlJuNRtZxmpLbKcrcsauMUhWQKnDK99Q17drh1GmNU4Vv6Vy5w4ZQoaEvEYErHmWrny/ZYvHixq/A85X9fuYRoLSJcRDciRAOQFDQjmOiNPMy9GXXVactecd/wUp3WudzAx94HsYIn17kJEFJpDJfhw4cnxYfn6RP6ugBLFV/BGGbrXzviQq9JV/a2SVf0du2ZCq/UxhlsI1oeOijP2/ZM65GX4W7rosepgu16b9/a78qNh731BV9sNzDfrVdoptZOtYAqVFNV2nnefWrxVEVcsD9VoS1Yvtc9n0I+HZPoWLQ/INEEMyUm87k3+nzpWiMT5XxZ0NOOL37QTcSjSXZ0XqlZu8yvSvuNC9EUmml9ep9zre69N6xm+U8tY8gwy7p8nNXved9qt5S4Nk7NfJgoA/M3nS+X/TrlzpftMWHChNgVngUJ0OqfaNTOCXQTxkSLA8ZEAzrfxIkTm1rK0DLNUqYLExHEBwMft1IIJhZAFMZEQxRNJqBJBfbu3euvCQfOl/HF+bKT7a40O3DcX4CjmTlp6UQ3oRINQFLQ4ObJ1krS1fTttcYb0bfttHq2n75Fz7n5HteCwrfoAFJZWM+9nC/jg/NlF6F18UT6eRCgoRsRogFAyDRNROB9OGAigtZx36KPu65p4GO+TQeA8ON82XY6X2oMNs6XXYhxM09EKye6GSEaAISUPhwEAyvn3vuPljlqrH8PAvow0DTw8Z2PMvAxAKSg6POlm4iA8+VJos+XmhGU82UXUtVVT8ZFa9Ir278BdA9CNABIAVmXj7e8eU81ta6k+rftwcDHhavfpgUFANDETUTA+bIJ58sEQXAUkZtudgaVaOhehGgAkEKC1hVXnZZirSuRgY9nNrWg8C06AOBUmp8v0wdf4N8TfpwvE1CfXMYBk7O9nwPQzQjRACBFndC6EuKBldMHD2sa+Dh3zr18GAAAtInOlwVPrud8ie6jAO1sxkazvlTkofsRogFAinOtK/7AynrzHJbqtKAFpeDJdQx8DADoMM6X6Fa9UzxA6pNjlsNMpeh+hGgAAEetK3rzHLSu6E11sgkGPi5c/RYtKACATsH5Et1Cs1Km8gQDg/L8G0D3IkRro40bN1ppaam/dGpbt25t1XYAkIjUuqI31cHAyolOH2D0QUYtKAx8DADoKs3PlwqnEpnOl0HLJufLJDS00L+RYqhCQwIhRGuj2bNn27Rp004bkK1evdptM3/+fH8NACSnYGBlfThItIkImg98rA8yfBgAAHSH4HyZ/+T6xDxfjruu6XxJy2YSy80w65dig+trRk6q0JBACNHaaMGCBS5AO1WQpgCtuLjYBgwYYPPmzfPXAkBy04eDEyYiGDXWv6frBS0oDHwMAEg0J50vu7Ga+4Tz5Z2Pcr4Mi0H5Zjkp9DFeoSFVaEgghGhtNHXq1FMGadEB2qpVq9w1AISNG1h53lNftK500bftwcDHhavfpgUFAJDw3PnSr+bmfIm40Uyd56VIW6fGgOtPFRoSS1qjx7+NNogOzBSkRV8ToAHxN2jQoKYQG4mntmSN1axdag17dvpr4iPSsjnLMi8fZxmDh/lrkVCObDDb86i/gKT3rU3+DcCavjDevHmzvwYd1Znny8xxU1wVHOfLFLG70uzAcX8hhNTGOaKIKjQkHCrR2im6Ik0I0ACkMr1pL3hyfdxaV5oPfMwHAgBAGATny/x/WBf386WGOOB8mUKGFJgVhHi2zq8VEqAhIRGidUB0VQwBGgCc2LrSnoGVgxYUBj4GAIRZxpBhnC/RccMUNIXwI/3AfLMzsvwFILHQzhkH27dvt3PPPdeKijh5AZ2Fds7kpdYVXerfe8Nfc6KgZZMPAUmq7B2z94v9BSS17D5mFy/3FwDaObsa50u0y/F6s3fLzKob/BVJTgEas3EigRGiAUgKhGjJr+FwqVU/t8jqt5RYY2W5+xZdHwQyR4/zt0DSKv1nswPeBckro8DsAu/f1/yv+isAQrTu0nS+fO8Nazy8350v1Qaq8UEJz9CisARpBGhIAp0fotVVmv3hPu8/6EP+CiSdjEKzM8eY9f+evwLoeoRo4dJYWcYHgbCpqzCr9875SE45ffwbwBcI0bof50u0WrIHaQRoSBKdH6Jpxi7N3IXkp2+oe1zkLwBdixANAICuRYgGJJlkDdIG55v1J0BDcuj8UQjL3/ZvIOlp3BsAAAAAQOLJzTD71plm/XL9FQkuN93s0p4EaEgqzM4JAAAAAEBYDCkwG+pdEnnmzl7ZZpecYVaQ6a8AkgMhGgAAAAAAYdIn12xEkdnZOf6KBKHqswu94xrWwywzzV8JJA9CNAAAAAAAwkbtnecVmn3zDLOe3VzxpcBsYF6k+uyMLH8lkHwI0QAAAAAACCuFaSN6RirAujpMC8Kzb55pNiif6jMkPUI0AAAAAADCThVgCtNUmaY2z84aM01BmcI6hXajv0R4hlAhRAMAAAAAIFUEbZ6ayfOSnpFKMYVeHQm6FMj1yTH7WkGk6kxhHW2bCCFCNAAAAAAAUlFhZqRSTKGXqsYUql3QIxKs9cuNBGMK2IKLlnXR/QrMgmozBXJDC836eo+h6gwhRogGAAAAAAAioVrv7EiwNqQgEowpYAsuWtZF9yswU7UZoRlSCCEaAAAAAAAAEAMhGgAAAAAAABADIRoAAAAAAAAQAyEaAAAAAAAAEAMhGgAAAAAAABADIRoAAAAAAAAQAyEaAAAAAAAAEAMhGgAAAAAAABADIRoAAAAAAAAQAyEaAAAAAAAAEAMhGgAAAAAAABADIRoAAAAAAAAQQ8KEaOVVdbZyw2FbsHyvHTxS7S8f8u/tGO1PtD/tN5Ec8I4t1uvcta/KXn7zM7ft3EW/t23vl/v3fKE9Py/tZ/1rR/wlAAAAAAAAnErChGgLlu+zA0eOW7/eOTbnJztd8LVy42F3n8IehUiisGjdq0dOWg6Csuht5eVtn9n0e3/ngqgV3v5a2lfwWNF9QWgVLG97v8xtEzw2COL0WK3T/XpM9O1gvwq+tD5Ybv5885fssaGDCpqORdtK9D4+2Ftlr3iv43HvZ6Tthg7Mc9sEj9G25VX1p/15BfvV8QT71X4Wv1jqtgEAAAAAAMCpJUyIppDn5mv72/UT+tryB7/urzVb99oRV2GlMEyB0+IX99ub75e5ZYVHqsySYu9a26qSbdfeSnv5zU/d+uZ0n/bx8puf2/R7t7t1xYt2NQVJeq51r37srhev3d/03Cu86/lLdtu2nWXec/7BPdcrb37m3fept78DbptIIFXv9n/wyHFvv3/wti93j9O2OkaFbLo/oNetMEuvQ69Lz61t7vdea4V3THpMtB75mf4tc4/Zta/SbaufhUT/vPSzCH5e2q+20c9QtF/tq9C7HDxS49YBAAAAAACgZQk1JloQ5ijgCii0uvrSM236hD72wb4qm3TlWa6aSoGQllVRpZDovIH5NvL8HjbUu1YwFexr6KB8FxZpvejxul1RWedCqshjC+zgx18ESVeP/JJdc8VZ3rpIxZiWtQ+tU8in5wyOa9KVvd02MvL8oqbnOeA9v/YvetxV3rY6xklXfLF9QPvWfoPXpSBOj9VtPSagfesSBGl6ncUzBtlTf3d+0/NG/7x0/9Ujzzzlz0vBYY/8DDvgv04AAAAAAAC0LGFCtOnjz3aVVXN+8r6t3HDQVUiJQidVhK3YcNgFQqrSUsungqa0xkZvuww7x19W6KWQSCFTEAwpJFJYFLQ3Rvsi8Kq2c87KdrdFlVwrNx5yoVxAtzV+mCq7rrr0DLes41IbajSFX8ExtoaOXces4wtel671unTRsTWnY9CxXOP9bFRZpp9ZEPgFPy9Vx+nnpfAs2G+P/PQTfl76ObnnO6t1xwoAAAAAAJCq0ho9/u3O8c4Ms+rIWF2xKDCqqKpvCrcULinwab5e1VZBhVnz5ebbitYpTNP6SIAUqRDT9s33pfHYrh/f1wVL2kf0ttH7dmOf7a2ywoJMW//qEXvstq+esF3wfAqtoun+SAVY5PnUAmppaXbz5P4nHIu2UTXdOb2/CPcCkQAsw20X/ZjW/rwUrGm/2s8t3uv91YKL3fqY+n8vcgG6waBBg2zq1Km2YMECfw0AAOhM06ZNs9LSUtu8ebO/BgCA1JZQIVoi0Jhi3zi/hwujTkchl8IzUcVXrO1PJwi/ulp0QNgqhGjoRoRoAAB0LUI0AABOlFBjoiUCtUO2JtBS8KRxzHTpaADWHQGa6DW0OkADAAAAAABIYYRoAAAAAAAAQAyEaAAAAAAAAEAMhGgAAAAAAABADIRoAAAAAAAAQAyEaAAAAACAxFbXaFZZZ3b4uNn+Y2a7K812VZx42VsVue+TGrOjtf4DASB+CNEAAACAFPf888/bxo0b/aVT27Fjh61evdpfAjqRQjMFZgrLfvOZ2ZZPzd48arbLW95TZXbAu+9w9YmXfcci9+0oN3u3zOzVT/zHVESCNe0TADqAEA0AAABIcQrQZs+efdqATAHatGnTbOHChf4aIM4UcinsUgCm0EyBmcKy6gZ/g3Zw1WvVkWBN+9S1lgGgHQjRAAAAgBQ3b948GzBggBUXF7cYpAUBWlFRka1atcpfC8SJwjNVkf32s0jI1ZmtmArpVJn2288jz9mRgA5AyiFEAwAAAFKcAjSFYy0Fac0DNG0DxEV0eKbxzLqy3fJ4feQ51SpKmAaglQjRAAAAAJwUpCk8KysrI0BD59AEAN0RnrVEx6AWUto8AcRAiAYAAADAiQ7SFKDpQoCGuDreEAmsNAFAd4dn0VSZpjZPHRtVaQBOgRANQMLRG/bWaO12AACg9aKDtOjbQId9VG321uedO+ZZR+nYFKRp7DQAaIYQDUBCUTA2ZswY10ZyOqWlpTZx4kQ3kxgAAIgvhWYvvfSSuxCgIS72VZl9UJFY1Wenoqo0TXCgsdIAIAohGoCEopaRG2+80Q1ofKogTQGaxmdR4HbHHXf4awEAQDzpnKwL0GFqk9ybhIGUxkrbU+kvAAAhGoAEpGDs9ttvbzFIiw7Q1F4ybNgw/x4AABAPDYf3W83yn1rF1Evc5fjjd1nDnp3+vUAbqOos2Qfs3388EgICgCet0ePf7hzvzDCrPuwvIKn1/17kAnSRhQsX2hNPPGFTp051gdqoUaNciEaABgBA/NW/+4ZVL1/krluSMeIyyxo7xbLGTfHXADGoJTIsY4v1yTEbWugvAEhVhGhoPUI0dIMgSAsEM4QRoAEA0HGNleVWu3ap1by41Lvdugl70vsMcIFazozbLK1Pf38t0Ixm39wfsjHF+ueaDS7wFwCkIkI0tB4hGrpJEKQRoAEAEB+qNqvdUmJ1JWtaHZ61RFVpqk5TqAY00SQCyTgGWmsoRFOYBiAldX6ItrPYrPwdfwFJbeAPzPpe5y8AXevpp5+20aNHE6ABANBOqjqrf2er1fxy6SlbNttL1WnZM261zMvHW1pBD38tUtLR2sg4aGE2osisZ5a/ACCVdH6I9tlms9/P8xeQtLL7mF2wwCynr78CAAAAyaA9LZvtRatnijveEAnQquv9FSGVm2F2SU+zzDR/BYBU0fkhmlQfohot2Z0xxjtJMJAmukfQcqJvtrPHTeVNeVjovPDxRn8BSSfDOyecNd4sf4i/AkCiiTVRQGdjIoIU9EGF2UdJPBNnWzA+GpCSuiZEA4A2ct+ab1xtdVtLTnrzz/grIXBko9meR/wFJDVVKfe4yF8A0N1Od/7sLk2tniNG8UVYmGkWTs3GmUpo6wRSDiEagITSsHuH1Wx6oVUDHTP+ShJjvMzw6D3BbPCP/QUA3aUt58/upC/CsifPsvTBF/hrEBq/+Tz8bZzNKUBTkAYgZRCiAUgIHWk5SSsosszLxzH+SjIhRAsPQjSgW3Xk/Nmd0ocMs+zvzKTVMywOV5vtqvAXUgzVaEBKIUQD0G06Y6Bjxl9JEoRo4UGIBnS5rpwooLMxEUFIpGIVWoBqNCClEKIB6HL6trymZI3VbynptDf/jL+S4AjRwoMQDegyXXH+7E6MeZqkUrkKLUA1GpAyCNEAdAl9a173+kar3eS9+e/ilhPelCcgQrTwIEQDOlV3nj+7C1+EJZl3j5odrfMXUhTVaEDKIEQD0KkSqeWE8VcSCCFaeBCiAZ0iTC2b7cWYp0ngeIPZbz/zF1Lc6C+ZZab5CwDCihANQKfQt+WJOtAx468kAEK08CBEA+Iqkc+f3YkxTxPU/mNme6r8hRQ3ON+sf56/ACCsCNEAxI371nzjatdy0rBnp782sWWOHuem2qfVs4sRooUHIRrQYcl4/uwurtXTO2/r/M0XYQngzaNmlSneyhmgpRNICYRoADpM35bXbimxupI1SdtywvgrXYwQLTwI0YB2C8P5szsx5mk3o5XzZLR0AqFHiAag3cLYcsL4K12EEC08CNGANgvj+bM7BV+E0erZxT6pMdtR7i/AYZZOIPTS/WsAaBW1nNQs/6lVTL3Equ6eHroPAKoEqC1ZYxUzv+1en24DANBRyXb+VCiVLBoOl9rxx++yyplXuevGw/v9e9CpPq/1b8TXy29ttl0f7na3123eYAc/OWQrN0Xejx385LC7nvuz+6y8qsLdjqW8qtJdusSRGv8GgLAiRAPQKnqzf+yBOVb5/W9b9XOLUqLtRK85eFNeu3YZb8oBAG2WKOfPjAsvcxdVWQfXklbQwzJHjW1aDu7LueE2t5w++AK3LlqwL7et9/hgn27Z3093UJgWfBF27IFbrG5LiX8P2qqsrMxKS0v9pVPopLHQXn77Ndv14R/c7fVbNtiBIwrRXrBtH7xjcx690wVpI4de5N2b5sI2XbQuuBZtq4vM/dm9tvLfIyFc9PpOUd3g3wAQVhn3e/zbAHACN9Dxv66w6mWPum/PG0r3mNVW+/emDn3gqdv2a6tZu9QaP9rvWj7VOoIOOLLRrCbyRhdJLv+rZmeO8RcASCKePwuf/bU1VpRZ7t88ZGnZOZZ7y33eue0Vy7/3597xVljunHusYfdOyy1+1J3nMi64xOq2bLK8+55yr0eD+df9er3bl9omdR7UpaH0j5YxeJhlnH9x5NzobZsIXzrpZ173ynqr2/RC5Lxd2NPSChn0vbV+9KMf2T/+4z/ahAkTrKjoFD83zcrZCZnRy29vtn69+9rQc79q61/fYCPPu8heeft1GzpwiHe92UYP/6b9ryUP2eVf/6b95LmFtqt0t615ZZ0d+OSQu79X0Zds2wdvuwCuoqrC3tuz02rqaqy6psaFadpOgdvI8y72nzGONFISM3QCoUYlGoCTBC0n7lvzxQ+FrmWzI/QNt9pwXHUarZ4AgCiJfv7UMVllmauytoqjrnKs4fB+75gXmYZCzxw3xTu3rY5sp+XRY9326X36e6/tiwo6DeQfXJoq0YLlsxNrPNGg1VPVabR6tt4dd9zhqtGmTZvWckVaXWPk0oVUfdYjr9CFagEtX//nU9z1zZO+b+WVFa7Nc9uuSLWZbg89d4hdffEYb93bTS2gndbeqckWAIQaIRqAJnqzr4CoYurFKdOy2V6MvwIACCTr+bP+3d9Y+pBhlnPzPdZoaVa3aY2rMgvGQ6t/7w1XWaNzni6BY3fPaLo07NnphjwIllX5lagY87T1hg0bZqtWrTp1kFbXeWHRyKEX2+J1/2zzlz7ixkNTRVqg/FhFzHZMtYP269W3KShTwKbqNu23R36hd+lh5w0c4u7rFLR0AqHG7JxAinMtJ2uXWo33ZrIx6g0y2i5z9Dj34UPXiIHZOcOD2TmRwtTmX+PGzEz886eqxBT2Nb9WC6YqydTKqfBPy2r7TB9yQYv3h4leW3RoiJPt2LHDhWhq6VSoNmCAP5zF0Vqzdzvv70HjoAUBmoIvjZGm21ovwX26PqdX3xOutV7tnHpcYV6haw3Vsto3g7HWooO5uPvWmWY51KoAYUWIBqQovTGu3VJidQrPqDiLK70p1xvyzBGjunWA5YQWI0Qrr4oMVtwjP9NdJxod38EjNTZ0YL6/JoURoiFBqYJGl3hTmKCLKplcWySSXvaM2yznhls77W8m2SlIKy4uPjFI6+QQLaldWGR2Rpa/ACBsCNGAFFP3eonV/HKpC9HQ+fQNd4735pwwrZnThGgvv/mZLVi+z3rkZ9jI84useMZA/56I9a8dcdfXXNHbXa/ccNjOOSvHyivr7M33y2ze7MFufTwdOFJt85f80Z76u/Obll/Z9pldP6GvWz6dScXv2GLvcef0zvHXtN39S/bYpCvP8n4ePfw1bbPu1SOd9rMhREMi2bp1q23YsME2btwYe2bBdho/frwtWbLEji34cUK3LqL1NDZc/iMrbP78+fbMM8/4a9EStXm+9NJLhGinQ4gGhBohGpACmlo2X1xK1Vk3UdtM1tgpLlQLO31wnT17ti1YsMC92W7RaUK0Bcv3WkVVvd18bX/7YF+Vq/Z6fPk+V/1VPGOQu//AkRoXTOkENucn77vH3Ty5v61/7WNvu3q7euSZLmQLHqd9KZDT7bmL1MrR6LYrnj7QFq/VeHZpdvWlZ9i29/XfR5q3fb+mIE/Ld84YaLf8ZKcLwvp5F+1bYd5sb7/zl+zxtjF3bC9v+9R2ecd8Tu/cpvBPIdp53mtQ8Lbgtq/Zulc/btrm+gl93DHKNVdGQsHFL+53FXiP3fZVW7nhkLftMfdY7V8hWiTQ++I5F79YaoXe9trn/bMHu5+Xgsj1rx5x2+pncU6vHBeiXeXdDvZ/8+R+3nafu9c6d9Hvm362ov0ouHPbea/xtBV3hGhIAKoeUgCyevVqtzxq1Cj3748qZk45s2A7DR8+3O1bY59pEgEkv6xx11nunY+689eWLVv8tQjo5/LEE0+42zq3T506lRDtdAjRgFAjRANCTNVmNWufcVPUIzGo1TPz8nGW/Z1Zoa1O04fZiRMnumu1fbQYpJ0mRFPwo/BIQdDVl37JW9PoAiIFOdEtlAp3RGHPN84vcoHaK95jIoHX+y7oUigWPO6x277WFC7Nm/0V+x/F79hjt37NFq894CrMFG5VVDV4y6Vu/fx/2mO/WnCxTb/3d+65FD6tePDrLhSLBHZHrEd+uneMZ9qlFxR5z1HtgjcFZgrsglAsqERb4b0mBXARaVHP80e7fnxfG3lBD/dagsBN+1i58ZD9xz+OtDk/2ekdwwAXos1dtMs9Z2FBpnstkZBwgG3bGfkwo2NV5Zl+Fnqdf/bXb9q8vxrsQrTIz6Tc1nnHrpDv8eV7vZ/XIFdVp+fU8SlcPKd3tgvYFPqdNkATQjR0M33ADwY+14d7zSrYNG5TJ9K4YcefejChq9E0c6a+SMOpqQotr/gR75zc+X8zySj6v6+mAE0I0U7tkp5mhYk5HAWAjmPEQyBk3PT6Ly51M0/pQoCWWDS7mX4/wVT7YWyrDcZM0bXeeGsslbZQe2aPgkxbcNtQFyIp2NFFwZGqxVQdpsAqWvmxYAw1VY5F6Hb049y6vAwXEqm6S9fRFKYNHZjnqroksl1V03Ytjc+myrQPvH0poNJ2k644ywVVC1bsPeEYtU2wH1W+BW2ZakNVgFZeVetXiGXYVd7xTrqytwvVJPoYJHjOgx9Xn/B6m9NjFB5Gb7NgxT4bOijfrdPrufT8Ive811x5llun47p65Bmuek1Ot38gEQQf8BXaq8VSH/K7IkCTtMIiyyt+1AqWvWKZY6/r8i9GsibPdBfJmXOPZY4ea3kPr3DLwUD5qq5SkNYaqpjWpSWaMEevM7joeQueXO/fe7JEH6hfPxO9hryHl7s2TgK0lp0yQJNOGDj/5bc2264Pd9u6zRts5aaWZ0/V/bFm5wwcOHLY1r++wV/qQll8xAbCLON+j38bQBJrOLzfan+5zI7/5Dar21pijd5yItMb2IzzL1FBjlkbviVPH3yBWU21WW2NW1YLhpsVzV9OJg17dlqt9yZRVQxpBUWWMeQUrY9JSAHahAkTbN26dbZ8+XK7+uqr7ayzzvLv9RzZ6P0eD/sLJ/pyv1x7edtntuW9o/ajvxjgAp3Xvdtvvl9u40f1ciGQbp/nwqBM63dWjqukUgCk0Ef3f3K0zrVKRj+uV88st22ksq3Se3Nd48Y0qzhW76q+9Keo51Tl1YVfLXSVZgqi/kwhnHcMn5TVuu0Ujl0+4gyrqWuwKf/lbPcYhVUTvOc4crTGe9wnNumK3jba20a0vfZdU9vgnk/71DF9fUiht5+eripMj1cFmY7z2X89aNXetrqtwOyF//jYvbbzBhZYrzOyvJ9PnnvOT4/WusfIl8/Js+zstMj93m0Fb3qNew8et/GX9fLW5bqfjZ6z5I1PT9ifKtbUyvl17zUHx6LXqwq30d7x5cT6MJD/VbMzx/gLQNdS67iC+meffdb9O9MdFKZlXT7esifPctXG+rKk8bPI2I2dKXPkty0tO8fq33vDsq66xho++9iyLx/nnj/3bx5y12k52e5ckzluimX9t+mW4Z1DdTu9T39r/HC35cy6y1t/vdV/8Lbl3fmI22fdK+st+y9ucSGT1usc3VC6x2rXLrMc7zVW3TXD6rf92tLPv9jqt5S4wEzbahu97khl16Pu+fWPX86PHrT0c4dEjtN7fPZ355h5x63j6mp63TqGvL/7qWWNHu9+X2jZaQM0x/vllh7zb3dceVWFzf3ZPPvdH3fayPMu8s5Zhd55ttZ+svwJe2/3TrvQ+9vNycp2yxt/+7Jd/vVv2sp/f8G7rLEv9x3onTdr7fFVP7NX3t7snd8iM3ou/tU/27P/9gvvscO89a97t1d65+IaNzPnSu+91wuvrDPN3Nmrp6re42hwgX8DQBjRzgmEQJ33JvbYA7f4S4kvaJ2o995Ap5/d36oevMWFfkHbSfCteXQLSnCfvmU/vuAu7039UbesMcY0Q1r0NsFtid5HotOb+fwn1zcdexhEV4mc0NoZY3bOzqJgSK2RevOvUOmpv7sgckczam1US+ivFlzkr0kurZlIQD+L6fdud1Vvak9tN9o50U2ef/55mzt3rt1+++2uhTOR1L271Z2bOrPVM6j20rhsuXc+4p4z94bbrPKHk6xw9VtWMfUSK3hynR3zzpl59/3cjnnn2rx7f25VfzvDu/5HO3b3DEv3zscK1qywyKwi0prX8McdbgzPGu/4s71zbJW3XaBw2StWedcMa/yo1Hq8tNu999C21St+6l1fZ9VPPeSdw4qanj9S2dZouXPuda2vOXPuc8eR/Z2ZXTqzqd53ZN8QmTUbraNztybqaDlA82351Ptjj99HyblP3msjz7vYBWry8tubrXjaD1z1mYIvhWuqUDtw5JBd7/3dKTArP1bp3f8HK8wrtPPOHeIed06vvnb1JWNcZZu2L/6fP7S5P7vXHvvBAzbnsWK78y9+YOu3bLBJl09wQduv/n65e1xcZKaZjY5zKAcgoRCiIdSCWbr0QV4f4sNm3rx5LpSo/OE13fKNbnspCIt8uFhj6YOHuUoyvdGv373T6vfscG9yFSgdf+4JyxrnvXHz3tirSuvY4z9209Crqkf3a1nfnB/z3ojrWqGcvvlu8PaR/Z0bXXWAtkmmlkm15KiaQbOD6W83DPTfny5Bm6cL0ropREMnIERDNwnGXty8ebO/JvHonKRzUPXyRXGvEFdFlQIwhVEKx1TZnOudQypmXuUCrvKJQ1zopRAtt9g7V949w7UvVnr3qyWzxjumjAtHmZtwqKAoUtXtcV9QjR7n7W+1pRX0tJq1S916aR6iHffOsZmjxlv14gct3duXzusSPH++d26vLXnBVY1HrqdYlfeeRQGgwr/oL7yivwiLB+3PVb5dO8sFe2gbzXArmo32lN48alYZGU4hHu5f+rB947yLXUgm617fYAt++KB9sO8P9o3zL3LhmFo9D35yKFJN9u9rbOTQi1x7pyrPrrl8grsWBW5av/hXz7oQTftecd9im/S3M+zqiy+3XaW77ZrR411Ap/vjpmeW2Qj+3oAwI0RDKCmAWLhwYVNwpg/vuoSNQjS9uan4/lXuDW2yCN7sK+TKmXGb1ZSsjnzbrWo678181ne8DwZDhrlv1TNGjLLqpx70li9wb9AVnmlZ47OIHlftvcHP9O7Tt9v61lvb6A163eslVvPLpXH/4NKZghBNs8wFb2CTnf47DP5bVIimWfMI0UKEEA3dQMH8mDFjXIWMKmWSgb480kVtjfHgxmTzzqdqUdSXSKoKy394hRsPVevr/7jDnRs1i2jODbfa8cfvttw7H3aVZfkPL7eatctcqCUK+1TVrnPy8acecmGcPiCoXTM6RNP+FcrpPYcL1H40yXLveMTS+w5wry3YVpVxwWzgOicrxFKQqHO3vjxreG+rd45/w31plnZ2f3dbwZ3O4x2lqjM9T9b4KYRnne2DCrOPThyjtCNUNabqs6svjgwRUJhfaOtf/zezxjS7/8a7XIjmgrF1y2zS5f/V2/Y1FTp6/zGk2c2Tvm8LVv2DFuz+WZFtVdE259E7XUj28luvucBM4Zqq2OYvfdi7v9JVrGk5bvrlmg2hnRMIM0I0hIreVBcXF7sKNA0sfOONN9p3v/vdUAZo0fSmVS0UyUIhkdo+dNw5N9zmwrP8+37uvt3WG319G65BfvWmXiGaKsv0JlzVdmo9UTunvtV2+/I+ALg3/N4b9uMLfmzZ197ovj3Xt+rZ46a6dpTaqA8AiUwfhPQBJUwDHOu/yRbHVCFECw9CNHQDfcmg8dB+8Ytf2OjRo/21yUHnNgVbCqiSaciBRKaqM71f0NhstGx2of3HzPZU+QtwhhWa9Qpm4gYQRkwdgtAIPqwrQNP4KGrvuOmmm0IfoIlCKbVMaHawZOBCP7Vx9FFL5l0uHKteu8yNc6b2DiX7+kY8+LZeIZq+pdaslnUKyLztdJ8uetz/397dwEdVpnnev5JUUkkqLyBIeBNmoAckjtiC2gTblpkhsO5ANwo9rOJ2g/0I7rjjW2zt2Y+I6HyeHl+C0Dt2C24L7tNg+xiUbtinPybMjtgtAXvxBUYQZqAbDGAQxbxCkkrynOuuc0IICZW3qtQ55/edrU+d+5xTp6oivan867ruu3nvLtPOkjw+X86t+wdr/J759lkDtLB1S3T64V8r58x8aH4I0OJI5zZ79a1IW0h7Oh+Y3nqrs8frpPy9pXOYdUWf5+33z9ij6PT99uW9AW7w8ccfm/vc3Fxz7yb6pZBOvK//f75+ARTvVT29xPn9GXrlHTPvGwFanA1JszfQJuvilbwBeAuVaPAMnRtFV+gaqD/WE0Us518ZCNre2PgL67148Nt6L090HDVAi1MlmoZo7x+olqmTckRXxdSbrky57s3jZgXLFXf/qTnv0LGzZr+upKnnqBFD08z+kda9rpKp5zuPL954VGqt7YcWjRFdIVRDrm2/PS3P3f9nJsByrqfaP063dUEDXRl0whhdRTNy3nXff0+22osY6HM519Dn1l/SusiBXlsf2/G4I8s6pitrvr3nS+u3e1LfFgvoCSrRMAB0yobVq1ebL8y08tzt4rEQgZewUEACee+MSEOLPfC5UIrIlMjK3AC8K+UJi70NuJau0LVx40ZTgabVZ36mc6TofGLOUvuttdXSesq9YZouoy9NjfbI/cxEx399hwSX/NC0sup/I6/pVgXa6VKRxkp7EDuHjtbLq6WnTIi1+V9OmRBr3+Fa+aKqSf548pxMHJsp/+2nhyWYmiTrtpww5/3T65/Kn38ty4RijU0t8t9fPy5XW+OH1xwyxw99Wi9HrcfqNWZNG2I9Nlk2/+9TMnFMpgwZlCp3PbnfnLftd6et5zgrpbu/lPJ9X0lSUpJs2HbCBHv6HHrOhv91Qq6blGNem/rv1v6JY0Pyd88dskat1vGTMn1ybttxfZwGgst+/IkJ1FZtOmaNNdT71LwvfR8TxoSs91wp8/9ymHlMzGV+TWRwZP4aIF606lxvXqk4198FqdNnmTnKzO9tnU+MVs8L+OH3pyudaxGpofrZuDwochnVeYDX0c4JT9Bvo/Wb6ERb4n6g6YfxzGc2mVW4tNVTP4BiYOhEysGlj5mWE13q38vfnldVVZk/ahOtKnTuNy+X22flmQqyqVfmmNDrxOeNJszSyrDI7MQic6zzZkwZbKq6Dh6rl0PH6uTtPWfM/ifuHmcqvCZYj9VraBWa0mvotgZvznlaObbnkxq5ffZws2/Pgcgk2zOmXmYer/d6DX2sKlo01oz1PF2BVsdaaXbw6FlzbR1rFZq+lpHW/dJbR5nqM93W164B4ZybLpcR1od4fY8A3Mdp9czaYP2ueOgZ63fHJPuIf/np96crtauI9r085kID/IAQDa6nkwtrxQsBWtecD+XmAyjzr8SVtpxkPL1RQi9s9c0y+1dddZX85je/Sfi2ag3IRl6eZgKriWNCdhgVodViGp6N1G+VLdpyqZVlT7x0RFZaN60C2/NJtThzj+lYtzuep2Odo2zb7z4325eiLaIaummA12r937otx024p0Gavh49roHbjKmDrfsm05Jaaz2nRn/ahhp5TTVy8vMGE7YBcDf9Iiz0wjbJ/Cf3zHnan/z4+9OVclMjbYx+pz8D5kMDfIE50eB6K1eulJdfftkz86LEC/OvxI5pOZm3hA/9lxKnOdE02NKKMq3Y0pApsq/ZBGZa8TVhbKYZa9untkU6VWHOcYe2UGqQpQGVbivn8VolptvaDrr276+MBHD29ZxjSh+nwZwGXBp6tb/X850KMq1Sa38Npe+hpi5sztHX1v64cw3ntWu4dt2V2aYqLS6YEw0DwGtzonWH1+Y87Qy/P13K+n0kx87aA5+aEBLJS7cHALyMEA2u58y9pB+k0XNtS+3v2+3ZD+Xxot+aBwoKJXXWfD78RxOnEC2eNCxzAraBFPfXQYiGAeDHEK09/RJMb84q1m6nvz+18i4wvZDfn24Utv6c/P2ZyL0fpSeLXD/YHgDwOto54QlUoPVex/lX9IMsus98a154m2k50fnn+PbcvxIhQFOJ8joAxM5Fc566cJqGjr8/9T3x+9OlAkkiI31chTUmw94A4AeEaADaOB/K/Tr/Sk/oh/+0RffZ88w9y0THAIC4a5vz9IVtrpnzlN+fHjUqIxKm+Y1WodHGCfgKIRqAi6SMz498KN+wg4UIOnAmOs4q+dAssc+35gCAgaa/i/SLMK0q199RifhFGL8/PU4DND9WZFGFBvgOIRqALuk33M6H8vTlP/Ntq2dkouPFkvnCVlOpx7fmAIBEpb+jnC/C9HfXQH4Rxu9Pn9FqtFwfrVAZst4rVWiA7xCiAeiW1OmzXD//Sk9paBhc+lik5WTZckkZl28fAQAgsekXYfq7ayDmPOX3p4+ND9kbHqeVd1dl2QMAfkKIBqBH3Dj/Sk85LScaGrJQAADA7eI15ym/P2Gqs8Zl2gMP0zbOYIo9AOAnhGgAesUN86/0hDPRcVbJB7ScAAA8KRZznvL7ExfRts5hQXvgQboSqb5HAL5EiAagzxJp/pWeMt+aP/6iaTlhomMAgB/0x5yn/P7EJWlbp1aleY2+J7+0rALoFCEagH4zkPOv9IQz0bHTchIoKOTDPwDAl3oy5ym/P9FtOmdYfpZI0EN/bqZb74V50ADfI0QDEBPO/CvOh/JE4LScOBMd03ICAECEM+ep80VY+zCN35/olfQUkck53gjSNEAz74V50AC/I0QDEFNtCxH04/wrPeVMdJxV8iEtJwAARNF+zlNdjIDfn+g1LwRpBGgA2iFEAxAXHedfCUybaR+JjbaJjjfsYKJjAAB6QX936mIEQJ84QZob50jLtV7ztYMI0AC0IUQDEHc6/0rGirXdmn+lp7TqLLj0sfMTHeeNto8AAABgQGiQNiU3srKlW+hrnWy9Zp3fDQBshGgABsyl5l/pKadlU6vO0m5dQssJAABAotGVLSdYt0Ru79TQ7GrrcySrcALoBCEagITQfv6V7i5E0NayWfIBLZtuk8LqVgAA+FKeVnjliAwL2jsSSJ71mq4fLDIo1d4BABciRAOQUDQIcxYi0LbMzqrTTNXZ4y8y0bGbZU+2N+B6/LcEAPSUtndOzIpUfCVCVZrOfaavZYL1mmjfBHAJSa0WextwpYULF5r71157zdzDe5rKNkvz3l0iWTkSKCik4swrPn9LpGavPYArDZ0lknONPQDi5/nnn5fVq1fLu+++K6NHM/cl4HqV56xbg0hV2N4RJxqejcmk8gxAtxGiwfUI0QAA8BdCNMCjvmqKhGlfNoqEY/RnqlaaaSvpkDTCMwA9RjsnAAAAAGDgaailbZ4Fl4lMyo6EXaEU+2AfaMuorrapLZs655kuGkCABqAXCNEAAAAAAIllaFokUJsyKBKqaQA2LjMy+b+2YepNw7H2Nw3ctMJMz9FzNYjTx97QLjhjzjMAfUCIBgAAAABIXBp8aQA2KiMy+f/k3MhNw7H2Nw3c8rMj5+i5GsQRmgHoR4RoAAAAAAAAQBSEaAAAAAAAAEAUhGgAAAAAAABAFIRoAAAAAAAAQBSEaAAAAAAAAEAUhGgAAAAAAABAFIRoAAAAAAAAQBSEaAAAAAAAAEAUhGgAAAAAAABAFIRoAAAAAAAAQBSEaAAAAAAAAEAUhGgAAAAAAABAFIRoAAAASFjV1dXm1h0VFRX2FgAAQP8jRAMAAEDCev755+XGG2+U/fv323s6t3r16m6dBwAA0FuEaAAAAEhYP/jBDyQnJ0cWLlzYZUCmAZqGbQsWLJD8/Hx7LwAAQP8iRAMAAEDCGj16tLz22mtdBmntA7Ti4mJ7LwAAQP8jRAMAAEBC6ypI0/CMAA0AAMQLIRoAAAASXvsgrbS01OwrKSkhQAMAAHFDiAYAAABXcII0vVcEaAAAIJ4I0QAAAOAaTpD2+OOPE6ABAIC4IkQDAACAq2iQpqt2AgAAxBMhGgAAAFyjta5GGjf+RM6t+qE0lW229wIAAMReUqvF3gZcSVfpUtraAQAAvKl5725p2LjG3LeXnDdaUiZ/Q4KL7pekvFH2XgAAgP5HiAbXI0QDAMCbtOqsqbREmrZvlpYjB+y9XUstnC+pM+ebUA0AAKC/EaLB9QjRAADwFq02ayovk3DZZmmtq7b3dp9Wp6Utuk8Ck6dRnQYAAPoNIRpcZdeuXWYyYWdpe9VZiFZRUSHV1dWSn59v7wEAAImuq5bN3koK5UhgeiGtngAAoF8QosFVbrnlFhOOaWDmBGkdQzQN0HRfTk6O/OY3vzH7AABAYjItm1vWS+Ob63tVddZd2uKprZ7a8gkAANAbhGhwlf3797cFZE6Q1j5EcwI0J2ijEg0AgMSk1WaNW1627t+LaXjWkWn1nLdEAgWFVKcBAIAeIUSD63QM0oqKisz+4uJiAjQAABKYs1BAeFdZv7Vs9gULEQAAgJ4gRIMrtQ/S9KbBmSJAAwAg8cSrZbO3nIUIaPUEAACXQogG13KCNCdAcyrTCNAAAEgM/b1QQKxpmKZVaSxEAAAAOkOIBldzgjRFgAYAwMBrqzor2yytlRX2XvfROdN07jRaPQEAgIMQDa6niwloNRoBGgAAA0erzZrKyySs4VkCtmz2ltPqGZg8jeo0AAB8jhANAAAAvRbeWSaNv1rvmpbNvtA502j1BADAvwjR4FrtV/hSurpWYPosSQplmzFc7LM3RCo32wO4TkqWSM7XRUb+Z5GAtQ3AcxJ9oYBY0xZP/dzBQgQAAPgLIRpcp+Xwfmnc/kan7SJJoRwJTC/kW2I3O10qcuQZewBXG/W9yA2AZ2i1WeOWlyVcvt3e42/a6qlBmgZqfO4AAMD7CNHgGj1d4YtviV1KAzQN0uB+meNF/nytPQDgVu0rv/3QstlbTpjGQgQAAHgXIRoSWn+0izAhsMsQonlHcLjINb+wBwDcpqXyuIS3b/Zty2ZvOZ87+BIPAADvIURDQjLtImWbpbm8rF8/uPMtsQsQonkHIRrgSj2t/EbnNEzTzxtMMQEAgHcQoiFhxLNdJHl8vqR9ZzHfEiciQjTvIEQDXMPvCwXEmoZpafOWSKCg0N4DAADciBANA24gP7jzLXECIkTzDkI0IOHpl1ZN5WWdLtaD/scUEwAAuBshGgZMorWL6LfD+i0xrZ4DjBDNOwjRgISkX141f7RLGn+1npbNAaTV8Pq5I3ncJHsPAABIdIRoiCun6qxpZ6m0HDlg700sfEs8wAjRvIMQDUgotGwmJv3yjtXEAQBwB0I0xIUb20WSQjkSmF5Iq2e8EaJ5ByEakBASrfIbnWOKCQAAEh8hGmLKKx/c+ZY4jgjRvIMQDRgwpuosTov19IW2MuqXVqrlVIW0Vh432yZEqq0276Onkq3H6nXD5dvtPe7DauIAACQmQjT0Oy+3i5hWT3t1Lb4ljhFCNO8gRAMGTO3im6W1ssIeJa6sDTukaWeZ+bwQLrfu7dccXLZcmrZvlpbPjkvrqQpJGjba3KsLtkPZ5l4/ewSXPma2m/75DUkeNspcr/1xfZzUVbWN3SC47DHzuQMAACQGQjT0G/2mu3HLy67+5rcn+JY4RgjRvIMQDRgQ4Z1lcvape+xRYtMQrWHLBpHaKhN6hV7YJs2HD0jy8NFybu1Tkvn0Jqm5ZbxkWPeNG9dIxkPPSPMR6/i4SXL20Tsk/aFnIwHc3l2SNnOBuaZWwKcUFErLPmvfd+6SpKwc61pPSuo8a9s6rl+InV31Q1dUyetrz3r9A6moqJCFCxfaewfe6NGjzf20adPku9/9btsYAACvI0RDn5iqMxe0i8SSsxABrZ79hBDNOwjRgAHRWLZZGlY9Yo8SW8dKNA3Nar97raQ/9IypRGsfooW3l5gvr+ofXSRJ1u/eJGmV1EX3S4q13VypraCR6jT9PBKwfifr72cN3rRdVEM1Z5xydeTLr8aNPzH3icwJ0fbv3y8rV6609yYGfU3V1ZGOAw3TiouLCdMAAJ5HiIZe8XLLZm/ph3MmBO4HhGjeQYgGDIjW2mqpf/SOhF0Fu70LKtH27ZbQC/9LGn6xWtIKF5hKtIzH11qfNV62xvPNOLjscWm0jgemz5Lmw/vN716lH2b1/Qas38NNZZtNaKbzqyVlZZtzNFjTfW4L0dKszxTBO++zR4nn448/lpdffllKSkrM+MEHH5QHHnjAbAMA4EWEaOgR/RDKCl/R6ZxpWpmm9+ghQjTvIEQDBpSGSY1b1id0mGbmGM2KzFsW3vueabc0rZhH9kuLhmA6nnyD2W4bW8eb91mfQ2qr285VJkQrmGk+o2ilmt5HqsRbrZ/FG+aLLnONLHshg8ORxyUancdNVwcPzLQ+R0yeZu9NbNpuevfdd5vqNII0AICXEaIhqraqM+vDuBsmKU4k+u23tnrqh2Cq07qJEM07CNGAhKAVWxqmhbe/Ye9BItLwLHXeEkm7dYlpQXUbbe3UIG3Xrl3y0ksvyaxZs+wjAAB4ByEauqTf4DaVl0lYwzNaNvtMvw2n1bMbCNG8gxANSCgtlRVtFeXa6ojEoO2laXdGvnBzOw3SbrnlFnP/7rvvSk6O+8JAAAAuhRANF9FVvRp/tZ6WzRjRdhKdGJmFCLrQjRBtzyc15n7qlZEWoO44ebrB3I8YGjT3/enQsXqZMCbTHl1s6+9Oy4wpgyQ7M2Dv6Zq+t568r87o6xkxNK1bzxdThGhAwtJWT72ZtkjEnWnZtD4H6GeBlHH59l5v0Eo0XUlUWzq1tRMAAC9Jtu/hc9qyqRPs1i641iyLT4AWO/qzPbfqEalbfLM0rPsH31UDOCt59VbxpqOy7befy6tvfSbrtkR+djX1YXNTD685ZB0/bbZ139yij0yotNXat+dATVuYpto/TjljZ9+lztVjzrhozb9d9LhDx+rk29Zz677aurAJtHTbuaZzfvvnUMt+fKDtmCPa63A4x4o3HrWe/6y998LH6Pntx8oZt9/vnOdwnsc5p/3zAnAfDW8yn9kkoQ07JDDzNqqk40SrzoJLH5PQK+9I+rLlngvQlK7Uqat0lpZSVQ4A8J6UJyz2NnzICXQa/vvySHDWxB/G8aItss2ffGjmqWk9ddzMf+KsMuZVGqDdeOONcvjwYZk9e7a9t4Mz74rUH7YHF3vjf5+SxqZWuX32cLnuymzZ9rvTsu7N47Lhf52UkZcHTdVXbX2zzJo2RL6oapJfln5mPSpJgqnJ8vb7X8kma5yUJPLHk+fkn/7fT83jJo4NycihQXll20n5p9crzMTVP37lj/Kvh+vM8au/liX3/PiAGTeGW+TtPWfk1dJK2fwvp6xj2VK6+0u5enyW9ZijMvemofIX/+V9+ZMR6VK+r0omjM2UdVtOWM+RKf/tp4fNNUrf+9L6B5Ak/+1nh2XPJ9XWe/jCPE5pMNjY1CKrNh2TGVMHy7Iff2Ies/lfPpfsUIqsfOmIvP9JraSlJZvnL931pbnXc+9Y/rE5V2/6/vU9rXuzwnpPn5rXq+9TA7byfdXmedq/b32M/oz0PdSeDcvm//25eYy+97977qActX5e5jFjMmXJUwfMz1af85ICWSLDb7MHABKRTrKfOn2WCdWSR4+XZp2kvy5S7Yv+o+FZetEzErzzfkmZdK0kpfV/VXQi0YUGNET7wQ9+IMGgt98rAMBfqETzIVN19uZ6s/y93qg6G3jaUqP/LbQ6Tbf1v5EX6dwoOtGwLoVfVFRk7+2ZokVjZc43h5pKNA3MNNDSKi8Ng05+3iBTr8wxAZvSfVnWsTtm55nxXOtx+vhDR+tNNZvzuD0HqsxxNWPKYNOaWVuv1WMpZt+J0w1tbaATxoSs5/1Cnrh7nHXuZeb5O3Pz1MvM9fUcdejoWfNcz93/Z3LQen69voaAK6zrdKzq0tc4xXofWjmnQVWW9To0bMvOSDHXVBpmvfpWpXmNNfXNJkh0rq+tnA5tD33i7vGydN5o857V0ltHWT+Ly83Pq1OtreY963PU1IXNa3WcON1ofj76ugF4h36Ro0Fa1oZ3JOPpjaY6DX2jLZu6uFBWyQem6s8Lc551V35+pMLu448/NvcAAHgFIZqP6FLu2rJZ9/1vmTZCwrPEo5M+a2Vg/b1zzL0XWz2Li4tlwYIFvQ7SnnjpiBz6tF5GXJ5mQiANdLTaa+qkHHNTHYMtDaAcGkQpfZwGY+0f59DrqZunDjZBkgnDrG0Np7b+9nMZad2//f4Z0yaq20qrxLSF02kxVdr2qOcoDcJ0Wx+XJK0m3OuKXkPDL52wUt9LW8VXUpLZ1uBs01ufmbnT9LXrPr2dPH3OtK1qqObQ96n7dljP68y15oSDDh3r63r7A+fnliR3zB4uB63X6wR8zs/Ceb8AvEvDnoyiZ02rZ+q8xbR69pBWnWU8/qJp2dTKMzeutNlXubm59hYAAN5CO6cPtLVsrn82YVs29ZtanXBfv7VtqThi7+2e1MLbIpVbHVYQTRo22uzTa7ecOn7R8USmrZ4tRw6YVk+d9FnbbZKvGG8fdT9t5dRWDw3S9P6C1s4o7ZwaGml4psHW9+eMMOMvvmoyLZgaJGkA9mVVk2lDVCZc0go167w/GZkuIy4PypBBqTL/L/Pki6pG8zhtfVTZoYB1Toap6NLQqHxvlalM08f+8cRZ0+6oVW4FkwfJ0RPnzH6nbdJcf0SGaePUarjr7LE+gY6nT841N62C+7u/ucK8Dm0/1cfqc5pzLRrsaailr3u2de201CQJpiVLwdWDzD59Hfrendeh19NWUn3+qZOyTdvl/L8YZq6t5+nPQcM8vXdeqz730EFp5ufhnKPPo9dxAkm9rr7uuTddfsHPQo/rz895vZdEOyfgavq7J3DdzZI2b4mZbqC1ttpMP4CL6eeX1L++Q4JLfmiCM/2d7fWWzUv5/PPPze94/dLsiiuusPcCAOB+rM7pcdoaqAFaosv+zWHrdf7Q+qB+lzSWlUjYet2BgkIJ79ttqrH0W139gKqBkgZmOlY6znh6kzRuXCNatqPj5HGTTAilLSl1986xPviPaqu608c1/+GAiPWHQJL1B4F+O9xyqsIVFV+Z1vvUoNFLtBLN+ZCtFWpGN1bnhEuwOifgOc1a1b5lvYS3v2Hv8TcTns1bImm3LjGfKRDhrND5y1/+UgoKCuy9AAC4HyGax5198h4Jl5fZo8SlIVr9I3eYD6FNO8sk/c77pGHLBkmbOV/OPv9DyfzHTdaH9g1mQnj9F5uUlW1WtGoqL5VAwSzrw3yJpC2638wplrVhh5xd9YgJnc4+ucz6cHuXNG152ayCFbnmbdKw8ScStMZh6/Gp1nPUfvda+5UkLg0VtT3k+eefl9WrV9t7vaNtKXxCNO8gRAM8S6cf0C+oGjau8d0q00q/lEuzPqv4aZ6zniBEAwB4FSGax51b+5Q0bdlgjxKXhmj6zbYGYnWLv2XGWkWn3+o2/mq9Cbq0lSS8d5ekWB9YtfJMK8ySr54W2d8hRKt7ZJFkvbJDam4ZbyrVNEjUCZN1rjEdN1vXCUz+htQ/usg8l56X6LRtNf2hZ81qV2+99Za91920lVM/aOuCA6+99lpkImJCNO8gRAN8oWlnqfmsodXgXtZWdWZ9ntBqdnSNEA0A4FWEaB6n3xTrqo+J/i2xE2Rp9Zh+qx1cdL9pGUkZnx8ZL30s0qo5bLS512+ANUTTyjINx0ylWdFzEv6oXALXFEjd386R0DMbTYjoVKIFFz1gKtdSCxdIg7U/bd5i14Ro+l71Z+OlD+0aoOkH7Orq6vMBmiJE8w5CNMBX9DNHwy/WmN/TXqpO088cWg2eOms+LZvdRIgGAPAqQjSf0KouvSXqt8Q615e2hWhVmdIP4rqv5fABM7+Z2Z+VI62fVZixHtO50XTF0eRx+daH9QozAbKeo3OjtRyx9tuP0bFzXFcY02vqZO8aSOnjnedORF5tF+kyQFMuCNF0Fc5X36qUFXePs/dEnDjdILX1zWZFzN5wVvKsqQvLtt+dvuj6rkOIBviWfuZwe6snLZu9R4gGAPAqQjSfafuWuLzMhFBIPNouEiicb7719uIH90sGaMoFIZqGZTv2nDGrXCpdyXLuTUNl7ZvH5aR17Im7x8nBY/Vt+/X8mvpmc66uhrnnQLXZrytxbv3dabN6qI6feCmyMm3RorHWY+vMqpjbfvuFZIdSZM43h5pzRw5Nsx5fI7fPzjPXSmiEaIDv6TQMGqi5ZSECFgroH4RoAACvIkTzKb9PCJyItKIudeZtnm4X0eDslltu6TpAUy4I0TQEW7flhIwYmmYqz9rfnzjdKDOmDpZ1bx6X22cNNxVlU6/MNlVmGny9veeMTJ2UI6s2HpO7bx1lwripV2aZkE0fq+Z+c6h5nP5/ztmZKWZfdigSvum19LyJYzKt6w03xxIWIRoAm37uMFXx2zcn5OcOU3V26xLzBRb6jhANAOBVyfY9fEZbHXUusawN70jG0xslMPM2+wjiTT+463+D0AtbPf/Nty4gMGvWrK4DNBeaMWWwTBgTMtsjhqbLyKFBqamLVJ1pVdqMKYPMtrZ4auWZhmkahimtQNP9c266XGZMvcw8Vm+O2vqwTL0yx4Rueq6aOik38hx2ZRsAuIF+7gjeeb/53JH+0DPmd99Ai1SdLTa/gzOf2USABgAAoiJEg2kZzCh6VkIbdpgwTecNQ2zpB/e0RfdJVskHkQ/uPppvZcWKFZ4J0DrSqjGtIBt5eZo1ajWBmbZyOvS4BmsOrVjb80m1LPvxJyZY00o2fbxTkabh2qpNx0xV281TI2EcALidfomnv/uczx3xpov16O/g0CvvSPqy5cx5BgAAuo12TnRKWy4at6yXliMH7D3oD/rNu/7xEJheyFwrXfHQ6pw19eFO5y3ruL+r85QeUwk//1lnaOcE0A3xmmKChQLih3ZOAIBXEaLhkpoP7zdhmlsmBE5EZqGA6YUSmDmfD+7d4aEQzfcI0QD0kFmI4E3rc8eu7faevmGhgIFBiAYA8CpCNHQLCxH0HB/ce4kQzTsI0QD0Uttq4vt29+pzh1ad6RxnXl6sJ5ERogEAvIoQDT1mVteybvrBFhejXaSPCNG8gxANQD/o7hQT+uVVivW7VxcL4HfwwCJEAwB4FQsLoMc6TgjMQgRO1dliyXxhq+8WCgAAIJb0c0fohW1driauv4OdhQIyHn+R38EAACBmqERDn7XWVUt4Z5kvWz1pF4kBKtG8g0o0ADHgTDHRvHeXBHSxHkKzhEMlGgDAq6hEQ59peKTfEmdteKfLb4m9RsMzfa9adcacZwAAxE9y3mjzuSO96FkCNAAAEFeEaOhX+mE2w/pQq62e2t7opVZPp10kq+QDWjYBAAAAAPAZQjTEhH5LnL5sualOS3/oGVO55Vam6uzxF81cK8E776fqDAAAAAAAHyJEQ8x1XIjADZyFApyWTZ33jPAMAAAAAAD/IkRD3Gh1mtPqqdVpidjq2X6FL62ko2UTAAAAAAAoQjTEnTMhsGn1XP4zCUybaR8ZOM5CAVklH9KyCQAAAAAALkKIhgGVOn2WZKxY29bqGc/qtLaFAqznZqEAAAAAAABwKYRoSAhOq6ezEEEswzStOgsufez8QgHWcwMAAAAAAFwKIRoSjtPqqe2V/bkQgS4O4CwUkHbrElo2AQAAAABAtxGiIWFpe6WzEIFWjvWmOq2tZbPkA8l4/EVaNgEAAAAAQK8QoiHhaaunVo45rZ7ajhkNCwW4WEqWvQHXC+bZGwAAAADgfoRocBVt9dR2TGchgva06ix13uK2lk2qzlxquPXfNY3wxROG9V87NgAAAAAMtKRWi70NuE5LZYU0790t+o84dXohFWde0fCZyJl3RZrr7B1wlZSQSObXRHKusXcAAPxk165dsnDhQvnlL38pBQUF9l4AANyPEA0AAABAr1RXV5vQbNasWfaerkO0n//85/Ld735XcnL40hMA4E60cwIAAADolfLycrn77rulqKjI3tM5Pf7kk0+agA0AALciRAMAAADQK7Nnz5YHHnhASkpKugzSdL8e1/PaV6wBAOA2hGgAAAAAeu3BBx/sMkhrH6DpeQAAuBlzogEAAADos+eff15Wr14t+fn5sn///rZ7AjQAgFcQogEAAADoF06Q5iBAAwB4Ce2cAAAAAPqF09qpCNAAAF5DJRoAAACAfvXxxx/LVVddZY8AAPAGQjQAAAAAAAAgCkI0AAAAIJ7qD4sceUaksVIkXGvvhKtkjhcZ90jkHgDgG4RoAAAAQLxoaPbxPSINn9k74FopWSLX/EIkYN0DAHyBhQUAAACAeNEqNAI0b2iujVQTAgB8gxANAAAAAHpDgzQAgG8QogEAAAAAAABREKIBAAAAAAAAURCiAQAAAAAAAFEQogEAAAAAAABREKIBAAAAAAAAURCiAQAAAAAAAFEQogEAAAAAAABREKIBAAAAAAAAURCiAQAAAAAAAFEQogEAAAAeUFMflj2f1Jh7dfJ0g7nvL3pdvabenOdQut1+3FP6mgEAcANCNAAAAMDlTpxukDuWfyyvvvWZLPvxJ3LoWL0ste77M0h79a1KKVpzSNa9eVx27Dlj7xV5e89XsmrjMXvUPfp69XWqQ0frzD0AAIkuqdVibwMAAACIpeqPRD4psgf9p3jjURk5NCi3zx4uez6pNvueeOkP1r40E6StuHu8vP3+l7LnQI3U1jfLxqeukofX/LupIMvOTLGOjzOhlp4/Y+pgGWFdSwM5VbRorEwYk2nCM73WnJsuN+f9n09qZJX1vFOvzDHX0D8qrrO29f596zXoY7b+7rQ5ptco3njMbOtthPX4dVtOyIr/609l5f/4g/y6+Brr9fybOTZ1Uo6MGGI9f+ln5vXdYb2n22cNN8HbouX/aj1fthw6dta8h8hrDprXO/emoVJkXSPynhvlxb+/0g7qWs3zz5gyWN9O/5pULJJ9jT0AAHgdlWgAAACAy9XUN0t2ZsBsa3ilN6Xh0ZQrc+Tk5w2y7benZdNTf26Ns00gpnSsj9VwLDsz2TxOw6ZIgJZkbm+3qzo7eKzOus7nbffP3T9Bbu4inNIA7Ym7x5mATkOzOTcNNSGZ7o8EcRp8XW7O1co5Ha/9+0ltr03DMh1rpVt7+pwTxmTIDmv/3G9eLlnWNXe8f0a2Wq/njll55vmUvge95sQxIfPeAQDoK0I0AAAAwOU0cNpU+pls/e1pU33ltFtqaNWezj+mN632Onn6nLz9/hkTokUqvkaYIE4r2PRxM6YOMsHX1EnZ9qNFRg5NN6GcnqfnaMDmVL6pg8fqTaCl9Lge0zBLgzC910q59px20+yMFPM69PVoJZnZZ4eCHenrP3jsrKlM0/O1ck5pYKbHnMBMn19DQX3OGVMGmX0AAPRFyhMWexsAAABALDVUipwutQf9Z+LYkKSlJpk2xvl/MUxmTL3M1JH9+deyJJiWLH8yMsOESVo9Nvsbl8msaUNkxOVBOXS03lRvTZ88SA4erTOh1t/9zRVSYI3/9d/rzDUKJudKMDXZFKY1NrWadtDsUMBUkx09eS5S+WY9v15TxwWTc8zzzf/LYeYaQ3NTzba+vi+rmqzzQyb40goyveb5irRW83itntPrDxmUao4Frcfp9TVkK9v9palCu+7KbPN+auvD5jXqa9DAT1+bnv9H6zr/999+Tb6oajRB3mzrtXUVyvXJ5bNFghcGgwAA72JONAAAACBeYjQnmh9o5dlLbx5va9fsSI+vfOmICdvmfnPoRVVvMcGcaADgK4RoAAAAQLwQonkLIRoA+ApzogEAAAAAAABREKIBAAAAAAAAURCiAQAAAC6gc36t23LcHp239Xen5dCxerMqZ0d6zFkB06ErcXbc1xVnBcx40NU79bX1hL5vfYy+z23WrSf0sfF6bwAAbyBEAwAAAFxgzyc1UlMXCZk0/HECIF1xU8OuGVMGmbGep8c0XIocazRjPUete/O4FG88Zo7ruVt/e2HQpuc5+05+3iA79py54Bzn+s64/WsxgZZ1rjPWoOpS11fO9TaVVlr7IqtpKj1HtX+N7a+v20+8dERetR43cmiajLBuHZ9ft53rq/bXOni03rw3AAC6ixANAAAAcAENxGZMvSxSdaXh0IFqWfdmhTlWU9dswiQ9phVdekzvld7reSOHBs3YoYHSypcOy8nT56Rozb/be6Wtok0DqpqzzXLwWL05R/fr9Ys3/lEOHa2zjv/hwtey5bhZHVPPPXS03oRheo3szBTr+v9mrqn0OrpPj2nIZl7D5w2RkKwubL3WE+a8lf+j3XHrmhr+6TV1W9/Tjve/El2JMzsjxXr+GnPTax86Vmefa70/6xp7DlSZ16XX0p+hPndnVXsAAERDiAYAAAC4iAZWM6YMlqW3jpLbZw+390ZoGDX1yuwLjh08VmfCN8eEMSHrlmmCt6lX5ljnjjbBk9IqsSTrfu5NQ+WJu8eZgGqida6eo/T6M6ZcJnNuutyEXs5r0ZuGWPqch46dNa2VGqTV1odlx/tnzDW0Skyv7+zTUO/tPWfM69HHjbBDPj3PodVizmvU93Ty80ZzfVNV1yqmAm3C2JB9tvX6rP16XuT1RCra9LH6fjX409BNnxsAgN4gRAMAAABcQEMmDbHmfnOoqfp6eM2/myqw9jRA04o0Pab3qmjRWNn6289NJZbSSiwNuSaOzTQB28Nr/k1un5VnjmmwpW2Rum/Zjw+Yfe3NmDrYtEau2nhMbp4yyIz1tRRvOibaTqrBlV4/y7pNnZRj7vWm1WzZmQFzfQ20lAZhc24aat2fM8+n4Vp2KGCCMB3rdWZMHdT2GjdphZ3d6ulU1enP5NXSSMWdunnKYFn50h/Ma9QgsL1WSTKP19cDAEBvJLVa7G0AAAAAsVT9kcgnRfagZyItkydk7d9faaq1auubTYjkVG61H3c85tAgS2lQ5YRJzrntOcf1fL2G3uu+jtdXHcftH9vZWHW8vur4mtuPO7u+cl5XZ2Nnu/01HXq99o/ptUnF1gWusQcAAK8jRAMAAADipQ8hmnJCISQIQjQA8BXaOQEAAACXIEADAGDgEKIBAAAAAAAAURCiAQAAAAAAAFEQogEAAACICV2Bc+VLR+zReU9Y+/Z8UmOPAABwBxYWAAAAAOKljwsLDDRd5XLlS38w2yOGpsnJ041mnralt45s2z/npqEyYUymrNp4zKyAqeesuPtPzbimvlmesLZPfN7QttKoq7GwAAD4CpVoAAAAALpFQ7A9n1SbUGzb706b+1dLP5O33/9KsjNT5KFFY0xY9upbn8mEsZky95tDzeN0rCaMzZB1bx6XEZcHzUqjAAC4CSEaAAAAgG7LzgxccFO1dWFzH9F5o4tWrk24IlOmXpkttfVhU6UGAICbEKIBAAAA6DYNwTreawunRmdahbbi7nFy++zhsudAtbz9/hmZMCbDjA8dqzfzoE0YG5KDx87KxDGZ5vEAALgFc6IBAAAA8eLyOdH6S/HGo3LH7OFmPjVXY040APAVKtEAAAAAxFXRorHuD9AAAL5DiAYAAAAAAABEQYgGAAAAAAAAREGIBgAAAAAAAERBiAYAAAAAAABEQYgGAAAAAAAAREGIBgAAAAAAAERBiAYAAAAAAABEQYgGAAAAAAAAREGIBgAAAAAAAERBiAYAAADESzDP3oAnpPHfEwD8hBANAAAAiJfgcJG82+wBXE3/O+p/TwCAbyS1WuxtAAAAAPFQ/ZFI42f2AK6TNlwk5xp7AADwC0I0AAAAAAAAIAraOQEAAAD0m127dsnYsWNl//799h4AALyBEA0AAABAv6uqqrK3AADwBkI0AAAAAAAAIApCNAAAAAAAACAKQjQAAAAAAAAgCkI0AAAAAAAAIApCNAAAAAAAACAKQjQAAAAAAAAgCkI0AAAAAAAAIApCNAAAAAAAACAKQjQAAAAAAAAgCkI0AAAAAAAAIApCNAAAAAAAACAKQjQAAAAAAAAgCkI0AAAAAAAAIApCNAAAAAAAACAKQjQAAAAAAAAgCkI0AAAAAAAAIApCNAAAAAAAACAKQjQAAAAAAAAgCkI0AAAAAAAAIApCNAAAAAAAACAKQjQAAAAAAAAgCkI0AAAAAAAAIApCNAAAAAAAACAKQjQAAAAAAAAgCkI0AAAAAAAAIApCNAAAAABAYqsLi1SeEzlaL3KoVmR/jcje6otvekzP+aIx8hgA6EeEaAAAAAB6paKiQoqKisz9pXT3PKBNVZPIsbORYKz8S5H3q0QO1UX2VTZEQjI9p+NNj+k5GrLpY377ReQax619hGoA+ogQDQAAAECvaChWUlIiCxcu7DIg0/16XM8jRMMlhVsjAdh7ZyLBl1aUaTCm+/tCr3HEupaGar//KvIcDS32QQDoPkI0AAAAAL0ybdo0KS4ubgvKOoZk7ffreXo+cBENuZyKMw3OYhlwnWuOPIcGddr6SZgGoAcI0QAAAAD02oIFCy4I0j799FOz//jx4xcEaHoecAFtr9TwTG8apMWbtn4SpgHogaRWi70NAAAAAL2i7Zo671lOTo5UV1fbe4UADRdz2jZ1nrJEMjZTZEyGPQCAixGiAQAAAOgXTpDmIEDDRbTi7GCdSEOzvSPBpKeITM4RCdK0BeBihGgAAAAA+o0TpBGg4SLH6kWOJlj1WVeoSgPQCUI0AAAAAEDsaPumzjv2RaO9wyVGpYuMC9kDACBEAwAAANCPWutqRGqrJClvtL0HvnauRWS/9W9CFxFwo1Ag0t4ZSLJ3APAzQjQAAAAAfabhWdOW9dL45npru1qS80ZLyuRvSHDR/ZKUN8o+C76iAZquvJmo8591l86Tdm0uQRoAQjQAAAAAvde8d7c0bFxj7rsSKCiUtHlLTKgGn9AWzver3B+gOahIA2AhRAMAAADQI07VWdPOUmk5csDeG51Wp6Utuk8Ck6dRneZ1GqC5tYWzK7mpkSANgG8RogEAAADoFq02ayovk3DZZtOy2VtJoRwJTC+k1dOrjtSLHHfJKpw9xWIDgK8RogEAAAC4pO60bPaWtnimzpwvqYXz7T1wNQ3PNETzsvxskSFp9gCAnxCiAQAAALhIx4UCYs20es5bYuZPozrNpXQhgQ++isyH5mU6L9qUQSLBZHsHAL8gRAMAAADQRqvNGre8LOHy7fae+NOqNK1OYyECl9GVOKua7IHHMT8a4EuEaAAAAIDPmaqz0hIJ7yqLSctmbzkLEdDq6QKVDSKHau2BT2iIpmEaAN8gRAMAAAB8qqXyuIS3b45by2ZvaZimVWksRJDA3vtKpKHZHvhEeorI9YPsAQA/IEQDAAAAfCaWCwXEms6ZppVpeo8E4ccqNMeYTJGxGfYAgNcRogEAAAA+EO+FAmLNafUMTJ5GddpA82MVmkMXGSi4zB4A8DpCNAAAAMDDtNqsqbxMwmWbPRGedUYr02j1HCB+rkJz5GeLDEmzBwC8jBANAAAA8KDwzjJp/NV6V7Zs9pbOm6arerIQQRy9XyVSF7YHPsVKnYBvEKIBAAAAHuG1ls3e0lbPwPRCSfvOEqrTYqm2WeSDr+yBz90wWCSYbA8AeBUhGgAAAOBybl4oINa0Kk2r07RKDf3scJ3IiXP2wOdYYADwBUI0AAAAwIVM1VlpiYR3lRGedUPbQgTTZ0lSKNveiz7x84ICHdHSCfgCIRoAAADgIi2H90t413bft2z2loZpWpXGQgR9dK5F5Pdn7AEMXaVTV+sE4FmEaAAAAIAL0LLZ/1iIoA9YlfNi+VkiQ4L2AIAXEaIBAAAACSoeCwVoi6M+hz5XdzkVXCnj8kVC2RLe/oYZ9wd9PS1H9ku4fLu9JyJ13hJJnXmbnH30jh691u5oa/WcPI3qtO5iPrSLjUwXGR+yBwC8KOUJi70NAAAAIAFotVnjlg3SUPyIhPe8I9LUYB/pveS8URIonC/Jg4ZKS8URSbn6G6YSS+cIa/7kI0mZeI3ZHygolNYzn0vKldeaCq2WUxWiDWqpf32HJI8eJ62njkvGj35iArTwO9tEkqyjtdVtx1uOHDDXSBp8ubm+jnsiKStHmvUaGmjZ15C6agne9UMJl5dJyycfXvBc/UEDSr12o4aJ1vvTUE2f26/2798vn3/+uVx++SV+BhVnRRpa7AGMtGSRy6lEA7yMNXgBAACABGCqzso2S/2jd5hbpDqs/6rPMp/eJK2VxyX4nx+QQMFMSS96VsR6zpS8UWai/eA9y8156csek+Tx+ea4hlTpS5dLyuRpkpyVK6nTZ0nqdxZLa221uWnApWFc+uNrTfCkxwMzbzPXCEwvlOCtd0VCMIsGa1kbdphbxuMvmn3OWG9Jw0abfXqeuWa7aySPm2SOtejrX7bcPJeGbPpc/U3/G9TdOyfy38Da9qPnn39ebrnlFikpKbH3dKKOBQUuUhe2NwB4FSEaAAAAMIA0PGvc+BOp+/635NyqR2I251mSBk8FhdJ8eL+1fUVb9VVz5XH7jPM0xArv3dVWnaVVbBpkJYUiqw/qY5uP7DfbSoO4xjc3WI/ZbQIupWPzXMMi7ZEtp45LY9lmc2vaWWb2OWO9SV2V2deecw2xnre1tkZaT1VIYPI3IvuPHIi0k8aI/nfQ/x51i2829xpA+sWKFStk9OjRUlRU1HmQFm6N3HAhXWwBgKcRogEAAAADQEMarXaqXfB1afjFmn6tOuuMhmE6f1nK+Hxp3rdbkkM5kvH0RhOAaZCXZP2fVqtJVq6Zjyx18jRzXKvBJJQr0hpptVRaEZbWbjJ+bT3NKHra7Gvqan40rV47VWFuTmDmjM2+bjLPteJn9nPFvlKspbLCVKTVLo5tyJlINEB77bXXug7SCIu6Rosr4GksLAAAAADEUcvhA3J21Q/7bT6vntBqNBNm2YFd+8oyZcZZOdJaGQm19Pz22/pYpedfNG53LedxHa/fHc5jnNfRNrZ1fK6BoNV22pLqtJl6VUVFhSxcuNDcFxcXy4IFCyIHqppE9vb/z37Zcw/J2odX2aPz5v5okdwx8za5febFq6gW//KnMvfGWTLhiq/Zey7t4Z8+Ls/97ZP2KAZuGCwSpFYF8CpCNAAAAPSK/mGtE5BXVV3chocL5ebmyqxZs8w8YnX/dW5bMAX30qq80IZ3ROeTKy0t9ez/DvR/56tXrzbbbUFajEK06+7+K9n0+Dp5+8N35eTpz2TqxGukpr5W1m39n7Ji8SNm+/1DH5n9c6bPNo/R4C07M0tGXDZc7iicL/rX7UtbX5ERQ4bL0m9/Tw59elhe3b5ZJoz5mtz+V7fJt3+0SF58eJXZV/Sf/tZco19dnSMyKNUeAPAaQjQAAAB0W3V1tbz88svy85//3Gyj+37zm9/IxPQkqb93jr0Hbpf5wlb55Gyr/Mf/+B/tPd6Wn59v/h3HMkTTSrSVG5421WLLniuyxsXy8Asr5EXr/p7ihy7Yr9VnGqLN+PqNcuL0Z+Yaew59JEvnfs8EcROt45u2vyHF966U4td+au3/vqxc/4x2JssTS34oUyd+3TymXxGiAZ5GiAYAAIBu0fBMV+3T8GzatGnmpnMm6Q2XlpOTI1dddVWkEm3xt0TnIIO76WILWommysvLzb0XaSXak09G2h91njQN0mIdoq379Suy9oerzPjXP94o9zxXFAnRrPtf/+NGE5xpUKYhmG7f/lfz5eQXn5mqs/9z8ENZZz1267tvmWtqFdu/rPmVCc+0ek3bOSdcMd4EajOuvdGc068I0QBPI0QDAABAVM7k4hqcPfDAA1JQUGAfQU/pRPXnih8xk/vDnXT10vRlj0ny+NitDpoInDnRNDhvC9BUjEK0uT+6Q4rvfUrWbX3FVJzp2FSmrX/GhGrFv3zBBGUjhubJE0seNY95Yv3T5l73F9/7pLz9wbuydedbMtI6p2jhvSZMM+Mhw+U56/jDLzwuK5Y8Yq6pY20F7VfX5opkBewBAK8hRAMAAMAlaRWKtm/eddddsmLFCnsv+qr58H6zYma4q9UsE1zWhh1S98iibq2saSbif3qj1C2+2d7jPjr3WaBwvgQKCiUweZq917u6DNDUuWaR339lD3ABFhYAPI3/dQMAAKBLr7/+OgFajKSMz5eMomcltGGHpD/0jCTljbKPuEfwzvsk85+2mtcemDlfQi9si7yXULakzltixsFlj9lnW398jJ8kmU9vskfuoO8lbdF9EnrlHUlftpwATQX4M7JLBGiAp1GJBgAAgC7deGNkziCdTFzn9UJsNe0slaYtG1zR6qmVaPVP3iOBglmR0Gx6odQ9ukjS5i02c7+lzVsitd+91oRmTdtLJLh0uVmVtP6p/+KK1Um1ZTPtzvt8EZp1pAGarrzbaYDmKP9SJMyfkhcIpYhMGWQPAHgRMTkAAAA6VVpaaipSHnzwQQK0OEmdPksyn9lkqtMCM29L+Oq0pKwcM8F+a121SFautadVkkI5bQsnmNeflW22jaQkCRTMtAeJx6k601U39b+DHwM0VVxcfOkATQVT7A20oUIP8Dwq0QAAANApZzGBffv2EaINEA2nwjvLpGHjGmmtPG7vTQzappmk/5c3Ss6t/QdJGTfJVJ9pFV3DL9aYucN0HC4vk6btm004pVV2qfMWS4N1fiLRqjN9vamz5psQEN1wuE7kxDl7AGNkusj4kD0A4EWEaAAAAOjULbfcYsIzrUjBwAvv3SVNZZtduxBBIvJzy2affXZO5N/q7AGM/CyRIUF7AMCLCNEAAADQqauvvlqmTZsmL730kr0HiaClsiKyqmd5WcJVp7mBs+hB2q1LqDrrC50PTedFw3kFl4kEkuwBAC+iaRsAAACd0pX5aONMPMl5o80qkVkb3jErYWo1FaLTn1PG4y9KVsmHErzzfgK0vtKwKBSwB5DcVAI0wAcI0QAAAACXSi2cf8FCBLhQpOpssWQ8vTGyUEBBoX0E/WJIqr0BfhaAPxCiAQAAAC6n1WkZRc+aME2r0xJ9Vc9Y0xVDdSGD0CvvmKo95jyLkUEER22GptkbALyMEA0AAADwCA3TtDrNtHou/5kEps20j/iDadl8eqOErPdPy2YcaAtjLi2d5ucQTLEHALyMEA0AAADwoNTpsyRjxdq2Vk+vVqdpy6ZWnWVZ79O0bFJ1Fl95rEYpeVShAX5BiAYAAAB4mNPq6SxE4JUwTavOgksfMy2bpurMep8YAEOC/p5QP936kzov3R4A8DpCNAAAAMAnnFZPbXl060IEujiAs1BA2q1LaNkcaBqgjfRxiDQmw94A4AeEaAAAAIDPaMujsxCBVnMlenVaW8tmyQeS8fiLtGwmmlEZIkEf/mlJFRrgO4RoAAAAgE9pq6dWczmtntoimUichQKySj5koYBEptVo40P2wEeoQgN8hxANAAAAgGn11BbJtoUIQtn2kfjS502dt7itZZOqM5cYkuavlTp1QQWq0ADfIUQDAAAA0MZZiCDzhW1xXYggeVy+adnUhQLSly0nPHOjCVn+WGRA2zjHUoUG+BEhGgAAAICLaJh2wUIE02baR/qX07IZemErLZtul54SCdK8blxIJGi9VwC+Q4gGAAAA4JLMQgQr1p5v9exjdVr7hQJo2fQYbev08mqdYzIj7xGALxGiAQAAAOgWp9XTWYggedwk+0j3aNWZrgaqLZtUnXmYLjLgxfnRhgVp4wR8LqnVYm8DAAAAbcaOHSsLFiyQ4uJiew9wsfDeXdJUtlnC29+w91xIq84C0wslMHM+FWd+Erb+zNxbLVIXtne4XCggMiXXHgDwK0I0AAAAdIoQDT3RUlkhzXt3S8PGNdJaedxeZXOJpN26hIozv/JKkKYB2mTr37AfFk0AcEmEaAAAAOgUIRp6SwM1bf0EXB+kaVtqPgEagAjmRAMAAADQrwjQ0EbDJ22DdONiA/qaJ1uvnQANgI0QDQAAAAAQW7rYwBiXTMqvodm4zMhrBoB2CNEAAAAAALE3NlPk+kEiwQT+M9SZ/2wUq3ACuBghGgAAAAAgPtJTRG4YnHhVaVp9pq9JW081SAOAThCiAQAAAADiy6lKGxa0dwygPOs1aHimrwkALoEQDQAAAAAQf1qVNjFrYMI0rTzThQNusJ57gvUagtZrAYAoCNEAAAAAAAOnfZg2ISQSimGglRuILBpw/eDIwgGEZwB6gBANAAAAADDwNEzLSxeZMuh8oDYkLVI11lv6WL2GE5xNzo0sGtCXawLwraRWi70NAAAAtBk7dqwsWLBAiouL7T3AAGhoidyfa47cOzQE0SoiwhB/qA1b/wasfwsN1r8DvW+2/oxt/28ikBz5t5Bi3dKtbf23kRWIbANAPyFEAwAAgFRXV0tOTo49iugsRNPzVMdzgT4LW3+W1IUjYUlds8hXTecDtGh0NUUNS7RVT4OT3FT7AAAA/YdYHgAAAHLjjTdKUVGRPepcRUWF3HLLLVHPA7pNg7PKcyJ7q0V+fyZyf6Te2tfQ/QBNafj2RWPksXqN8i9FDtVG9gEA0E8I0QAAACB33XWXlJSUdBmQaYC2cOFCU4n24IMP2nuBXqpqEjlcFwnODln3OtZArb+YcK5BZH+N9RxfRQK1noRyAAB0ghANAAAAJhh74IEHOg3S2gdor732muTn59tHgB7SsEwrxfR24lz/Bmdd0XmzNFB7TwM7wjQAQO8xJxoAAADaPP/887J69WozF5oGatOmTTMhGgEa+kQngj9SlzjtlXlBkbGZIkFqCgAA3UeIBgAAgAs4QZpDFxEgQEOvHT8rcsy6xaPqrCfSU0TGZEQCNQAAuoEQDQAAABdxgjQCNPSaVp9p+6S2cCYyDdHGhUQCSfYOAAA6R4gGAACATr3++uty1VVXEaCh53S1zI91/rFme0eC06q0yTm0dwIALokQDQAAAED/OdUgcrDWHriIVqJpkBYK2DsAALgQIRoAAAAu0rx3tzRtLxEJ5Upw3hJJyhtlHwEu4Vi9yNGz9sClJmaJDGOeNADAxQjRAAAAYLTW1UjTlvXSWLZZWisr7L0RKZO/Iakz50tq4Xx7D9CBFwI0B0EaAKAThGgAAAA+Z6rOysskrOFZXbW9t3PJeaMlbdF9Epg8jeo0nKcrcB6ptwceoa2duan2AAAAQjQAAADfCu8sk8ZfrTchWm9oVZpWp2mVGnxMFxF4v8oeeIjOkTZlEIsNAADaEKIBAAD4SFvL5pvro1addVfy+HxJ+85iWj396FyLyF7r35FbVuHsKV2189rcSKAGAPA9QjQAAAAf0Gqzho1rel111h3a6qlVacFF99Pq6RcaoFU12QOPGpUuMi5kDwAAfkaIBgAA4FGm6qy0RMK7ymIannUmUFAoafOW0OrpZV5aSCCa/GyRIWn2AADgV4RoAAAAHtNyeL+Ed23v15bN3mIhAo/SNs4PvhIJ++RPCW3nvH4wbZ0A4HOEaAAAAB4Rj5bN3koK5UhgeiGtnl5xsFbkVIM98IkxmSJjM+wBAMCPCNEAAABcLBYLBcSatnjqqp4sROBSXl2NsztuGMxqnQDgY4RoAAAALqTVZk3lZRIu2+ya8Kwj0+o5b4mZP43qNBfZWyVSFbYHPpMXFJmQZQ8AAH5DiAYAAOASWnUW3lkqTds3J2TLZl9oVZpWp7EQQYKrbY7MheZnBZcxNxoA+BQhGgAAQIJzY8tmbzkLEdDqmaD8OBdaR8yNBgC+RYgGAACQoBJ5oYBY0zBNq9JYiCCB6Iqcvz9jD3xMq9C0Gg0A4DuEaAAAAAnEVJ2VlpiWzZYjB+y9/qZzpmllmt5jAFU2iByqtQc+NzlHJDfVHgAA/IIQDQAAIAG0HN4vjdvfcPVCAbHmtHoGJk+jOm0g+HlBgY5GpouMD9kDAIBfEKIBAAAMID+3bPaFVqbR6hlHYetPhvIv7QFo6QQAfyJEAwAAiDM/LRQQazpvmq7qyUIEMVbVJLKXf6sXuGGwSDDZHgAA/IAQDQAAIE602qyxbLM0l5fFNTxLGjZaWk9V2KOeSc4bJfphsbXyeGRHgtJWz8D0Qkn7zhKq02LhaL3IsbP2AMaELJG8oD0AAPgBIRoAAEAMOQsFhHeVDVjLZtaGHVL3yKIeBWnBpY+ZxQ2SsnIkKZQj4fIy+0ji06o0rU7TKjX0E+ZDuxjzogGA7xCiAQAAxMBAtGymLbpfApO/Ic1H9kvD2n+QjKc3SnIoR5KGXyENLz4pyZOnScOqRyS0YYecffQOCT70jKTkjZYG63W2VlZI+rLl1mMPSKM1znj8RWn+aLeE9+2yr54kaYXzRT866mMzX9hmVg9NHjdJ6u+dY96vVq2lXB0JrlpOHTfHA9NmmrFq2v6GvRUfbQsRTJ8lSaFsey86KioqktzcXHn88cftPZ3Q+dB0XjScF0oRmTLIHgAA/IAmfgAAgH6k1Wb1j94htQu+Lg2/WBO3AE0rxtLmLZbw3l1m9UoNj6S2Rur+61z7DJEUu81Rw6XkcfltxzVAazl1wrSapoybJEnDRknz4QPS+Kv1pgpNb8E775f6J++R5n27JVA431zjrDXW95c83rqWkWT+n7lzQit7bG5x1mK9r3OrHjEhn94nekvqQBk9erT8/Oc/N2FalwjQLtbMzwQA/IYQDQAAoI+0Cqtx40+k7t45JkAbqLZNfR1a/dW0s1RaTx2XpKzs85VhlcdNcOZUhmn4pcd1vrRAwSzTvqnnaHhm1FrHh52fW0yDtmRrrIFaa22Nvdfa325b5yILzFxgbimTp5lznbHeBoqGaU1lm6V28bfMfx83tabGw4MPPigPPPCAlJSUdB6k1TbbG7jAuRZ7AwDgFylPWOxtAAAA9IBZKGDLBmkofkTCe96R1jOn7SMDoLHBBF2BgkIToDX9f5skKTtXUq4YLy2fHpbwjm0i9TWSlJUrLRWHreOvmuN6fuOvNkirdU7gum9Jy8EPreNHzC1l0rXS8smH5n01We8zbd6SyLW3rDeVaBpGaQWcXl/P0Uqv8PbN5tasP4+66rax3hKBeY3WzyK8/Q0T8iVbPw99D35XUFBg7l9++WWpqKiQ2bNnm7FxtlmkssEe9M4h699IY7hJsjOzzHjPwY/MdjA1zYw70uMjhw63RxE19XXyxo6t8kXVGfnjZ5/Kn4wYYx+J6PiYV61/c1drxWUsDU8XCQxAmSUAYEAwJxoAAEAvaICk7YxwNw0DdX435kyLeP7552X16tWyYMECKS4ujuysahLZ27e25Lk/ukOum/h1WbHkEdn67luycsMzsvUfN0pWRrbUnq2VEUPy5O0P3pVt5W/JisWPyl/c/235lzW/No/NzoxM3r9151uyzboVLbxX9hz8UG6fOV9OflFpXSPLnPPtHy2SjY+vM+eKtMqr298w5yjnOZSGcXq+c98nNwwWCdLcAwB+QYgGAAC6tGvXLnnrrbdMZUp1dXzm9kp03/3ud03AoK2b2joJ9wsue8xU2Wl4VF5ebu/1L/3fvWoL0r5oFNl/vm23NzRE08qztQ+vkod/+ricOF0pxfeulHVbXxFpTZKas7UyYfTXZMdHvzMh2rLnHpIZX58uhyqOyMbla81jH37BetwXn8nc6bNN4Dbj2htNsCbWXzNP3PWI9Zgiudl6zI4Pd1rPU2ydv0Lunvs9efWfN5tzRl4+XG6+5kZ5adsr1nONNyHa2h+usl9hL12dIzIo1R4AALyOr00AAMBFSktL5cYbb5SFCxea9q79+/cTotlyciKtf7QAekdrbeTfdlVVlbn3O+ffuHMvTf0z99eMr98oq177qQnERg7NM/cTrvgzycoMycnTlSYUG3HZcJk68Rpz/nP3PmWqxw59+u9mfLP1eL3GhCu+ZsaOiWO+Zl0rW2rqa+WJJY9ax8fLwWORxyh9zHP3Pik1dbWy59CHsnTu9+WhhffaRwEA6D4q0QAAQBsNylauXGkmGNc/oO+66y75wQ9+cP6PabQJ7yyTs0/Rzul2yXmjJPPpTZKUN9re429ajactnbFo59z0+Dr59t8vkhWLHzHVYbf/1XxzP6dgtry09X+aoOvhny6XtQ8/b87/Py/9s6lIWzr3ezJ14tdNG+jJLz4z2+t+/YrMuPabou2Ym7ZvNsGYVrg5j5lTMMu65v9jKtH0MXOmz5aV658xAd2eQx/J1AnW/cGP+l6JRjsnAPgKCwsAAIA28+bNkx07dpjw7KWXXpIZM2ZIMBi0j6K95CvGS2rhfFPFpBP6S1OjfcS9dF6wpLSgJF92uaRM/oZZXKA93Ze26H5JzsqW5HGTLmhnTR6fLylXXnPRYxKVvte0v7lH0ouelaTBl9t7/a3TAE01tPR5YYGRQ/JMxdifDL/ChF861kn/0wJpJggr+PPrTTim85tplZq2W+r5ep4uFqBVa5EKtuHWNcbIkNzBJhDTBQs0EJt9w1+aqrX2j/lz69+oPoduD8m9zDxmur1arV7jX61/v3NvbLeAQm+MymBhAQDwESrRAACA8eSTT8rPf/5zeeCBB+TBBx+096I7zCqUO8ukYeMas/pjojHhWN5osxply6kKSR422tzra02xQ4Xmfbsl/aFnTCDYfOSApBQUSrhsc9t5eo2MZzZJs/U+w9a5Tnioj2/+wwEJTP6GJF89TZrLy6zH70/In4PS15t2533W651m74HqMkBT55pFfv+VPXC3E6c/MxVpI4bmydzp/8EEcX1y0xB7AwDgB4RoAADATCSu8591+gc0eiS8d5c0lW2W8PY37D0DT4Mjrbhqtl6bVpOFy8vMfcPaf5DUglkioWwTfOm2hmNN2zdLcNF9JizT8+rvndvW9hjeu1taKivMLe3WJdZ7fcMEaOHyUkn7zhITwCWPn2Qekyg0AEydt0TSCufTttmJSwZoKmz9uVD+pT1AG61AK7jMHgAA/IAGfgAAYP6AHj16NBVo/UArnDKKnpXQhh0SmHmbJOWNso8MrNbKT6Vx409M9VjTlg2mKk3DJW3L1EUSdGwCwPJSE6S1VB43IVvKuHzzeB03WzcN2BzN5dsltaAwMjF/KFfCRw6Y59BrJQIND4NLH5PQK+9I8M77CdC68Omnn146QNewiHm/LhYK2BsAAL/gtyEAAD5XUVFhKtGmTZtmgjT0j+S80SZMy9rwjmmTdNomE0nK5GmmoszRWldjqtE0VGupiz6RvL4nDd0SrTUyUFAoGU9vlMxnNplquUQJ9RKVhmdRK1CzCIwuEkqxNwAAfkE7JwAAPvf666/Lww8/LL/85S+loKDA3otYaD68Xxq3rI97q6epNMsbbarQ2t+3WK9H2zU1PBNTfVZhxrpggJk/zR43791trpM8Lj/yWOt6Wn0Wue4o6zrW+da20vnhnGvHU1vLJqFZbByuEzlxzh7AmBASyUu3BwAAPyBEAwDA57SVU+dE2rdvn+TkED7Eg4ZTGkwl6kIEbsJCAXFS1SSyN3p1oq9cm0uFHgD4DO2cAAD4nLZzKgK0+NFWz9TC+Qnd6pnIIlVni9taNgnQ4kDn/9K50RCRbv0ZRYAGAL5DiAYAADCANEzTICjRFiJIRNpOmrboPrNQQPqy5YRn8aQBGnOAnZebam8AAPyEEA0AACABOAsRhF7YZqrTCNPO00o9rToLvbA1ssomc54NjCFp9gZkWNDeAAD4CSEaAABAAtGAyGn11OBIq9P8SFs2teosq+QDWjYThU6iT0tnpJVzEJVoAOBHhGgAAAAJSoMjU522YYeZA8wP1WladRZc+php2aTqLMFogHYZ1WhU5AGAf7E6JwAAPldUVCQlJSVy9OhRew8SWVPZZnNr3rfb3uN+WnUWmF4ogZnzqThLdKzSKXLDIJEg88MBgB9RiQYAAOAiHRcicDOnZdMsFPDQswRobqAT6uf6eFXKvCABGgD4GCEaAACAC7UtRLBhh+sWInAWCsgq+ZCWTTcam2lv+NDYDHsDAOBHhGgAAAAupmGasxBB+vKfSWDaTPtIYtGqM53XTcMzFgpwOb9Wo41MpwoNAHyOEA0AAMAjUqfPkowVa9taPROhOi15XH7bQgHpy5YTnnnFhCx/rdSpK3KOTrcHAAC/IkQDAADwGKfV01SnDVCrp9OyGXphq6TduoSWTa9JTxEZ46PWRn2vVKEBgO8RogEAAHiY0+qpgVasFyJwFgrIKvmAlk0/GJXhj7ZObePMowoNAECIBgAA4AsaaDkLEWjQ1Z/VaVp1phVv2rLJQgE+o22dQQ//SaFtnH5eSAEAcIGkVou9DQAAfKioqEhKSkrk6NGj9h74RVPZZnNr3rfb3tN9WnUWKJwvgYJCKs78ri4s8n6VPfAQDdAm59DGCQBoQyUaAACAT2mrp7ZdOgsRdIfTsslCAWgTCkQq0rwmP5sADQBwAUI0AAAAn3MWItAwrauFCJyFArJKPqRlExfLC3proQENBTUcBACgHdo5AQDwOdo50Znw3l0SLi8zYVlgeqGkjMu3jwCXcLRe5NhZe+BSGqBpKAgAQAdUogEAAOAi2qap7ZpadUaAhm7TSfjd2toZSBKZkkuABgDoEiEaAAAAgP6jIZSGUW5atVMXEdDXTAsnAOASCNEAAAAA9C8No3RlyyFp9o4ENiwocu0gFhEAAERFiAYAAACg/6WnRFa4HJeZmFVp2r6pr29iVmQbAIAoCNEAAAAAxM6ojEhVmlZ8JYqR6SLXD3ZHpRwAIGEQogEAAACILa1K04qv6wcNbJim87XdYL2G8SGqzwAAPUaIBgAAACA+OoZp8Qiy9DnGZIgUXBZZOZS5zwAAvUSIBgAAACC+nDDNBFuhSFtlfwZqei2tOrs6J/IcYzOpPAMA9BkhGgAAAICBk5cemeBfwy4NvXQhAg3VQt2sGNNwTM/V0Ewfe23u+aqzQan2SQAA9F1Sq8XeBgAAPlRUVCQlJSVy9OhRew8AJJCw9efKuebIfXtazaYBGhVmAIA4oRINAAAAQOLSkCwrEKkqa39Lt/6UIUADAMQRIRoAAAAAAAAQBSEaAAAAAAAAEAUhGgAAAAAAABAFIRoAAAAAAAAQBSEaAAAAAAAAEAUhGgAAAAAAABAFIRoAAAAAAAAQBSEaAAAAAAAAEAUhGgAAAAAAABAFIRoAAAAAAAAQBSEaAAAAAAAAEAUhGgAAAAAAABAFIRoAAAAAAAAQBSEaAAAAAAAAEAUhGgAAAAAAABAFIRoAAAAAAAAQBSEaAAAAAAAAEAUhGgAAAOKjoUWkqkmk8pzI8bMiR+svvOl+PV4Xth8AAACQOAjRAADwkYqKCtm1a5c96lp1dbWUlpbaI6AXwq2RQOxwncjeapHyL0XeOxPZPmTtO1IvcuzshTfdr8ffrxL57ReR+0O1IpUNkQAOAABgABGiAQDgIytXrpSFCxdKSUmJvediGrTdcsstcvfdd5swDeg2JzjTIOz3dmB2wq4u02M9pRVpGqBpkKYBnIZqBGoAAGCAEKIBAOAjK1askNGjR0tRUVGnQZoGaBqy6X1xcbHk5OTYR4BL0IBMK8mc4Ky3oVk0Gqo5gZre6/MAAADECSEaAAA+ogHaa6+91mmQ1jFAW7BggX0E6EL78EznNItFcNYVrUjTwM4J7QAAAGIsqdVibwMAAJ9oH5hpoNb+ngAN3aILA2iAFs/g7FLygiJjM0WCfEcMAABigxANAACfah+kOQjQEJW2VB6sS8wVNANJImMyRUal2zsAAAD6DyEaAAA+1j5II0BDVIlWfdaVIWki40NUpQEAgH5FiAYAgM9pgFZVVSVXXXWVvQfoQEOzI3WRecjcIj1FZHIOQRoAAOg3hGgAAADomgZoOnl/IrZvRqPtnfnZIrmp9g4AAIDeI0QDAMCnWutqpKm0RMK7ysx2yrhJElx0vyTljbLPgO+da4kEaA3N9g6XmpglMixoDwAAAHqHEA0AAJ8x4dmW9dL45npru9ree16goFBSC+ebe/iYVwI0B0EaAADoI0I0AAB8onnvbmnYuMbcd0dy3mhJW3SfBCZPozrNb9zcwtkVbe3UOdJCAXsHAABAzxCiAQDgYU7VWdPOUmk5csDe23NamUarp48cqY+sxOk1LDYAAAD6gBANAAAP0mqzpvIyCZdt7rRls7dSJn9DUmfON6EaPOpYvchRDwZoDq1Em5JrDwAAALqPEA0AAA/pactmb2mrZ2B6oaR9ZwnVaV6i86D9/ow98LBR6SLjQvYAAACgewjRAABwuWgLBcSaVqVpdZpWqcHl3vvKOwsJRKNtnbmp9gAAACA6QjQAAFxKq80at7ws4fLt9p6B1bYQwfRZkhTKtvfCNbzextmRzo92/SB7AAAAEB0hGgAALmKqzkpLJLyrLOYtm72lYZpWpbEQgYv4pY2zozGZImMz7AEAAMClEaIBAOACLZXHJbx984C1bPaWhmlp85ZIoKDQ3oOEdLBW5FSDPfCRQJLI9YMj9wAAAFEQogEAkMDitVBArLW1ek6eRnVaovFrFZqDajQAANBNhGgAACSYtoUCyjZLa2WFvdc7dCECrU5LHjfJ3oMB5dcqNAfVaAAAoJsI0QAASBBabdZUXiZhDc9c1LLZW9rqqat6aqiGARK2Pga+X+WfFTm7MiFLJC9oDwAAADpHiAYAwAAL7yyTxl+td33LZm+xEMEAqmwQOVRrD3wsN1Vkco49AAAA6BwhGgAAA6CtZdNlCwXEmlalaXWahmqIg71VIlVhe+BzBZfR0gkAAC6JEA0AgDjyykIBsda2EMH0WZIUyrb3ol9pK2f5l/YAMi5TZBQLDAAAgK4RogEAEGOm6qy0RMK7ygjPeigplCOB6YW0esbCF40i+2vsAWjpBAAA0RCiAQAQIy2H90t413ZaNvsJCxH0M7+vytmRtnJqSycAAEAXCNEAAOhnsW7ZTJ15mzRtf8Me9Uxq4W3SfPiAtBw5YO/pu+S8URKYOV+a9+02rZfh8u32EeuDRlaOJI+b1K8/i7ZWz8nTqE7rC12Vs4750C5wba5IVsAeAAAAXCjZvgcAAH2gLZuNG38itQuulfpH7+iX0EgDKQ2gHDrW0Ci96NnItj1XWNKw0ZH7judb+53zsjbskJSrvyGttefb9/Tc9tdwzu2p1O8sMcGW/gz0ps5fL0eCi+5rG/eHlsoKObfqEald/C1zT4vsxaqru1H5SIB2sbpmewMAAOBiVKIBANAHGuA0lZdJuGxzv7dsavDVtLNMUsbny7lVP5SMp1+1nm+XaWesf+QOCVj3TRt/Yu3fKGcfvUMylr9oQqym8lLRNQaTx+WbifnPPrlMMh5fK+Gdpea6YesawXlLpPnIAUkZN0nOrnpEMp/eZCrJNGirW/wtc51AwUxJKZhlHqPP23LkE0mdt9iMxXqvDWv/wWyG/mmbee/6czAhnrWt4ZkGa+fWPmWeu+XIfnOsbvHN5jH9Ldn6GaV9ZzGtnhYN0K6++mpZsGCBFBcX23s7qG0W+eAre4A2I9NFxofsAQAAwIWoRAMAoIdMUFW22VSc6a1pS//PeWaqxjQKy8oxLZHaLqkhmFZedUaPa4ilr0fbKc1jDfu7stoqafjFT8ymXi9JAy6t4jpyQAIFheb1n33yHhOASSjXnNd85BMJb99sbs373pPWyk/bxmHruRwa2jWWlViPrTLj1srjJpzTirHI+FNzbX1FTtVcf9P55/T9aEin9/oa/ConJ0ceeOABKSkpkaKiIntvBw1UXHWqocXeAAAAuBghGgAA3aThmbZs1n0/9m2ELX+IzFnWvLNUmg/vN1VigcnfkOCyx8x+Db107FSG6RxnqQWF5rjOmRa09oet1+eESS3W+Toxv2qtrRax3os+Vq+h1+6MBmFmIn/rpqGehm/OWIO3rmhs17h9s7l2yvjz7aXxoMGdBpza6qnBnV9bPR988MFLB2nnCNE6xc8FAABcAu2cAABE0XL4gJxb91TcAxlth0yZfIOpCNNKK6diTCfybyp7o22sc41p9ZmOk7Ks7Z3bTeClj9U50LTaLNLeeaUJAlsqj5uxHtdtDeBSrr6h7RrauqnndZe2UmowZyrNrNdmKtH66dr9wVmIwI+tns8//7ysXr364tbOo/Uix87ag/7z9gfvyqFP/91sT534dXn1nzfLc3/7pBk7tr77lsy49kbJzsyy90Sn1609Wytzps+298RIerLI9YPtAQAAwIUI0QAAuAQNgurvnWPCKrhb2qL7JXjnffbIPzoN0mIUoj2x/mnJzsgyIdmIIcPl1e2bpeg/3St7Dn4kNfW1Zv+y5x6SpXO/3zZ2aFA2cuhwOXH6M3OvsqxrnfziM3Ouhm56rzc198YYBGqEaAAA4BII0QAAuISGX6wxLZxwP61IC23YIa+//ro8/PDD9l5/0RZPbfWUg7Uipxrsvf1HQ7STX5ySkUPyZOm3vydzf7TIVKKt2/qKzPj6jaY6TbenTrhG3v7wXZk7fbbcPnO+qU7TqjXdv+PDnTJnemRBC3P+r63zJ15jj63HffCu7PjoXfn1jzeZff3upiH2BgAAwIUI0QAAuITGss3S0MVk/nAXndct85lNUlFRYYI0v9D3q3Oj6YIDr732muTn54scrhM5cc4+o/+0r0SbcMXX5C/u/478y5pfSfFrL8jJLyrNfg3Bls79nqlOU0u//X0TlClt17znuaIuQ7Q50/+DrNzwtDyx5BFT6RYThGgAAKALhGgAAERxbu1T0rRlgz2CG+m8cZlPbzLzt/mJBmgLFy6U6urq8wGaimE753UTv942d9l1d/+VrH14lak+03bMCaPHy55DH10Uoun2yg3PyJQJ18j71vaKJY+Y8YQrxktNXW1biKaPramvk4nW/ocW/m2P5lXrFto5AQDAJRCiAQDQDbrqo7Z2hre/Ye/xHl2MIP3BZ+TsU/fYe9xPq890QYHA9EJJCuXYe/2hywBNxShEc+Yrc8Itnc9MK8Z0njNdGECr05xzHM65zjkPv7BCfv2PG80CBfpY3adzoynddsSkEi2UIjJlkD0AAAC4ECEaAAA9oGGartLZsHGNWYXSbQIFMyXl6mnScqrCXjFzpqmySy28zbyvFF1Bc997Epg205wfLi8zK2y6iVadBTQ4s95LYPI0e6+/XDJAU5+dE/m3OnuQODRg27bzLTNP2oDITRWZ7K+wFQAAdF+yfQ8AALpBJ6fXyqasDe9I+vKftYVNbmAqzR56Vpr37ZbgnQ9Y72WUpM1bYo4FZi6QpGGjI+Paamk9dVzSChdIa12NOe4GGp6lLbpPQq9Y/22WLfdtgKYuGaCpjBR7I7FoVdqABWhK2zkBAAC6wCcFAAB6KXX6LMlYsdas+BiYeZsk5Y2yjyQmbWdsras21WXNh/e37etIq+30/Zz7hVbbVdh7E5e2bGY8vVGySj6U4J33+65tszMLFizoOkBTQT4CdoqfCwAAuATaOQEA6EdNuppnArd66uT6SqvQzq56RIKL7j8/Ln5E0ouekUbr9QeXLpfmI/vN+0nEeeC06ix13hIz11nKuC6CIlxa+ZciYT4GXuDqHJFBqfYAAADgQoRoAADEQHjvroQNoFTG05tMWKbzoLmJVp3pXGeps+ZTcdZX+2tEvmi0BzAKLhMJJNkDAACACxGiAQAQQ9oaGd5ZJo2/Wp9Q1WnJ4/JNq6a2d7qBhmdpd97n63nO+t3xsyJH6u0BWJkTAABEQ4gGAECcaGWa3nRif0TntKIrETEAAAVKSURBVGym3bqEqrNYqGoS2euOEDUu8oIiE7LsAQAAwMUI0QAAiDOtTmv4xZqEbfUcaKbq7NYlpm0TMca8aOcxHxoAAIiCEA0AgAGiYZrOSZbICxHEi1adBQrnm+CMls04OlwncuKcPfCx9GSR6wfbAwAAgM4RogEAkADMQgRvrpfwru32Hn/QVUEDM+fTsjlQaOmMoJUTAAB0AyEaAAAJxGn11HnTvFydxkIBCWRvlUhV2B741A2DRIIp9gAAAKBzhGgAACQoXYSgcct6aTlywN7jbm0LBRTOl6S80fZeDLgvGkX219gDH8pNFZlMFSQAAIiOEA0AgARnWj3LNrt2IQKtOtO5zlJnzadlM1G9d0akocUe+AwLCgAAgG4iRAMAwCXcthCBCc7mLaZl0w38Wo02JFUkn2AXAAB0DyEaAAAupJVpetO50xJJW8smCwW4jx/nRmMuNAAA0AOEaAAAuFjbQgTlZdJaN3CVRCwU4AF1YZH3q+yBD4xMFxkfsgcAAADREaIBAOABrXXVEt5ZFtdWT606CxTON22bhGcecbhO5MQ5e+Bh6cki1w4SCSTZOwAAAKIjRAMAwGNivRBB8rh8CRTMpGXTq7QaTavSvIw2TgAA0AuEaAAAeFRbq+e+3f1SnUbLpk+caxb5oEok7NGPiGMyRcZm2AMAAIDuI0QDAMAHersQAQsF+FRVk8jeanvgIcyDBgAA+oAQDQAAH2k+vF8at6yP2uqpVWc611nqrPmEZ351/KzIkXp74AGhgMiUXHsAAADQc4RoAAD4kLZ6Nu/dfcFCBGahgOmFEpg5n5ZNRBytFzl21h64mAZok3NYSAAAAPQJIRoAAD7XtLNUWutqJHV6IVVnuJjbg7TcgEg+ARoAAOg7QjQAAABcWmWDyJE69y02MCwoMjHLHgAAAPQNIRoAAACi01U7dbGBhhZ7R4IblykyilU4AQBA/yFEAwAAQPdokHb0rMipBntHAkpPFvmzLJFBqfYOAACA/kGIBgAAgJ6pPBcJ0xKtKm1kusjYTOY/AwAAMUGIBgAAgJ7TqrTj50ROWLeBposHjMmk+gwAAMQUIRoAAAB6byBbPAnPAABAHBGiAQAAoO80TKtqin2bp7Zq6qqbQ9IIzwAAQFwRogEAAKB/1YZFKhsioVpds72zDzQ409BMw7OsAHOeAQCAAUGIBgAAgNgJWx81NVSrs25V1i3cInLOujVb+/VYe8HkSECWnhLZDln3g9IiK24CAAAMMEI0AAAAAAAAIAq+1gMAAAAAAACiIEQDAAAAAAAAoiBEAwAAAAAAAKIgRAMAAAAAAACiIEQDAAAAAAAAoiBEAwAAAAAAAKIgRAMAAAAAAACiIEQDAAAAAAAAoiBEAwAAAAAAAKIgRAMAAAAAAACiIEQDAAAAAAAAoiBEAwAAAAAAAKIgRAMAAAAAAACiIEQDAAAAAAAAoiBEAwAAAAAAAKIgRAMAAAAAAACiIEQDAAAAAAAAoiBEAwAAAAAAAKIgRAMAAAAAAACiIEQDAAAAAAAAoiBEAwAAAAAAAKIgRAMAAAAAAACiIEQDAAAAAAAAoiBEAwAAAAAAAKIgRAMAAAAAAACiIEQDAAAAAAAAoiBEAwAAAAAAAKIgRAMAAAAAAACiIEQDAAAAAAAAoiBEAwAAAAAAAKIgRAMAAAAAAACiIEQDAAAAAAAAoiBEAwAAAAAAAKIgRAMAAAAAAACiIEQDAAAAAAAAoiBEAwAAAAAAAKIgRAMAAAAAAACiIEQDAAAAAAAAoiBEAwAAAAAAAKIgRAMAAAAAAAAuSeT/B28GpwOiuIKQAAAAAElFTkSuQmCC;" vertex="1" parent="1">
                    <mxGeometry y="-1040" width="849.88" height="728.57" as="geometry"/>
                </mxCell>
            </root>
        </mxGraphModel>
    </diagram>
</mxfile>